<?xml version="1.0" standalone="no"?>
<!DOCTYPE svg PUBLIC "-//W3C//DTD SVG 20010904//EN"
 "http://www.w3.org/TR/2001/REC-SVG-20010904/DTD/svg10.dtd">
<svg version="1.0" xmlns="http://www.w3.org/2000/svg"
 width="626.000000pt" height="626.000000pt" viewBox="0 0 626.000000 626.000000"
 preserveAspectRatio="xMidYMid meet">

<g transform="translate(0.000000,626.000000) scale(0.100000,-0.100000)"
fill="#000000" stroke="none">
<path d="M2269 4821 c-67 -21 -99 -61 -99 -123 0 -38 30 -100 51 -106 10 -4 9
1 -3 15 -19 21 -24 63 -8 63 6 0 10 -6 10 -12 0 -22 20 15 20 37 0 17 7 20 48
21 91 1 112 7 112 31 0 51 -72 92 -131 74z"/>
<path d="M2185 4511 c-74 -33 -100 -65 -149 -177 -40 -90 -86 -240 -86 -280 0
-6 18 -18 39 -26 l39 -16 16 62 c17 69 43 136 53 136 14 0 -8 -135 -33 -196
-14 -37 -30 -78 -34 -93 -8 -26 -8 -25 -9 6 -1 17 -5 34 -10 37 -4 3 -6 -5 -4
-18 8 -40 -14 -38 -48 4 -87 109 -125 83 -165 -114 l-15 -79 33 -34 c60 -63
215 -183 235 -183 23 0 38 15 46 45 3 15 5 13 6 -8 2 -44 -98 -225 -140 -255
-26 -18 -24 -42 6 -82 14 -19 23 -40 20 -48 -2 -7 0 -10 5 -7 5 3 21 -1 34
-10 25 -16 66 -13 66 5 0 5 -9 24 -20 43 l-20 34 41 54 c87 116 127 192 150
282 12 48 25 87 29 87 4 0 15 -9 24 -19 17 -19 17 -26 2 -118 -8 -54 -17 -124
-18 -156 l-3 -59 55 -23 c30 -13 67 -24 81 -25 29 0 63 30 42 37 -7 3 -23 13
-35 23 -25 19 -26 0 13 250 15 93 4 131 -56 200 l-53 62 20 56 c15 45 18 72
14 127 -4 52 -1 89 13 143 11 41 22 76 24 78 3 3 8 -17 12 -43 6 -45 68 -173
83 -173 4 0 19 11 34 24 l27 24 -19 37 c-11 21 -22 58 -25 84 -24 199 -41 251
-90 281 -57 35 -101 21 -71 -22 9 -12 16 -36 16 -53 0 -23 -3 -27 -10 -15 -7
11 -10 5 -10 -25 -1 -22 -7 -53 -14 -70 l-13 -30 -23 45 c-12 24 -34 62 -48
82 -21 32 -24 46 -19 83 4 25 6 45 4 45 -1 0 -20 -9 -42 -19z m-271 -803 c-3
-5 -12 -4 -20 3 -7 6 -11 15 -8 21 3 5 12 4 20 -3 7 -6 11 -15 8 -21z"/>
<path d="M2315 4450 c-10 -17 12 -37 25 -24 8 8 6 15 -4 23 -10 9 -16 9 -21 1z"/>
<path d="M4915 4211 c-71 -21 -175 -50 -231 -65 l-101 -28 -5 -1419 c-3 -781
-8 -1422 -12 -1426 -5 -6 -106 23 -433 124 l-83 25 0 59 c0 33 -1 59 -3 59 -1
0 -32 -9 -68 -19 -37 -10 -72 -16 -78 -12 -8 6 -7 32 7 103 11 52 22 100 26
106 3 6 102 74 219 151 l212 141 -21 517 c-12 285 -24 557 -25 606 -4 99 -10
94 89 73 47 -10 62 -11 62 -2 0 14 -157 357 -169 369 -9 9 -154 -300 -146
-312 2 -5 26 -12 51 -16 26 -3 52 -9 58 -11 8 -3 4 -148 -16 -537 -15 -292
-27 -541 -27 -553 -1 -17 -42 -40 -222 -128 l-222 -107 5 -180 c4 -150 2 -179
-10 -179 -14 0 -373 108 -379 114 -2 2 -3 418 -3 926 0 798 -2 921 -14 917 -8
-3 -30 -9 -49 -12 l-34 -7 -6 -281 c-4 -155 -7 -553 -7 -884 0 -331 -4 -605
-9 -607 -5 -3 -124 29 -265 72 l-256 77 0 34 c0 25 -4 32 -14 28 -81 -31 -84
-31 -328 43 -128 39 -247 76 -264 81 -30 9 -31 12 -26 54 2 25 0 45 -4 45 -4
0 -33 -7 -65 -16 l-57 -16 -261 78 -261 79 0 123 c0 103 -2 122 -15 122 -29 0
-259 -92 -375 -149 -272 -135 -443 -292 -499 -459 -18 -51 -21 -86 -21 -212 0
-149 0 -151 31 -213 41 -81 167 -207 282 -281 708 -462 2257 -625 3512 -371
646 131 1143 380 1283 642 l32 61 0 155 c0 123 -4 168 -18 215 -53 168 -235
334 -515 469 l-120 58 6 908 c4 499 3 907 -1 906 -4 -1 -65 -18 -137 -38z"/>
</g>
</svg>
