<?xml version="1.0" standalone="no"?>
<!DOCTYPE svg PUBLIC "-//W3C//DTD SVG 20010904//EN"
 "http://www.w3.org/TR/2001/REC-SVG-20010904/DTD/svg10.dtd">
<svg version="1.0" xmlns="http://www.w3.org/2000/svg"
 width="1026.000000pt" height="900.000000pt" viewBox="0 0 1026.000000 900.000000"
 preserveAspectRatio="xMidYMid meet">

<g transform="translate(0.000000,900.000000) scale(0.100000,-0.100000)"
fill="#000000" stroke="none">
<path d="M0 4500 l0 -4500 5130 0 5130 0 0 4500 0 4500 -5130 0 -5130 0 0
-4500z m5620 3670 c0 -5 -5 -10 -11 -10 -5 0 -7 5 -4 10 3 6 8 10 11 10 2 0 4
-4 4 -10z m327 -324 c62 -7 118 -18 125 -23 7 -5 34 -16 61 -23 26 -7 47 -17
47 -21 0 -5 26 -22 58 -38 220 -110 312 -183 371 -297 12 -23 24 -59 27 -80 4
-39 4 -39 -7 -9 -49 126 -200 264 -345 314 -32 12 -62 21 -67 21 -4 0 -6 -59
-3 -131 6 -141 0 -169 -48 -231 -32 -42 -113 -91 -202 -122 -82 -29 -227 -45
-238 -27 -5 8 11 11 54 11 41 0 59 4 55 11 -4 6 -13 8 -19 6 -24 -9 -241 21
-298 41 -79 29 -144 76 -179 130 -43 68 -37 118 21 192 32 40 38 65 18 74 -8
4 -9 8 -3 11 6 3 9 24 7 46 -4 40 -5 41 -38 37 -44 -5 -45 16 -1 38 17 9 38
25 45 35 6 9 26 20 42 24 116 26 352 31 517 11z m-244 -663 c-7 -2 -19 -2 -25
0 -7 3 -2 5 12 5 14 0 19 -2 13 -5z m995 -449 c-4 -77 -30 -140 -89 -214 -42
-52 -128 -118 -168 -130 -38 -11 -40 0 -3 22 39 24 125 116 151 163 22 39 22
40 1 15 -118 -137 -217 -204 -392 -264 -134 -46 -204 -57 -400 -63 -219 -7
-336 5 -482 49 -244 72 -426 212 -481 369 -25 70 -18 71 57 9 137 -116 382
-212 608 -240 109 -13 337 -13 437 1 178 24 372 88 505 166 75 44 208 174 228
222 l14 35 9 -35 c5 -19 7 -66 5 -105z m0 -509 c-5 -93 -34 -159 -101 -232
-54 -59 -141 -123 -166 -123 -11 0 -22 -6 -24 -12 -3 -8 -6 -7 -6 4 -1 9 8 19
18 23 33 10 145 128 179 187 41 71 42 87 1 22 -99 -157 -303 -276 -569 -329
-112 -23 -335 -30 -474 -16 -373 39 -680 226 -731 446 l-6 30 33 -31 c104 -97
227 -165 398 -217 172 -53 240 -62 465 -62 261 1 409 27 599 107 151 64 327
209 358 295 12 33 13 33 21 11 5 -13 7 -59 5 -103z m1576 -452 c161 -86 160
-85 152 -154 -4 -44 -2 -60 10 -70 13 -10 8 -17 -33 -43 -26 -17 -63 -44 -81
-61 -32 -28 -96 -64 -117 -65 -5 0 -51 -21 -101 -47 l-91 -46 -79 43 c-136 74
-344 201 -344 210 0 5 4 11 10 15 5 3 9 31 9 63 -1 52 2 59 30 83 18 14 70 45
116 69 78 38 95 43 201 53 97 8 117 13 121 28 5 16 8 16 41 2 19 -8 90 -44
156 -80z m-4530 36 c55 -28 127 -67 159 -87 l57 -35 0 -63 c0 -34 5 -66 10
-69 18 -11 11 -23 -27 -46 -21 -12 -51 -38 -67 -56 -29 -35 -98 -75 -150 -87
-16 -4 -64 -23 -107 -43 l-78 -35 -93 53 c-84 48 -317 187 -327 195 -2 2 4 13
14 24 12 13 15 27 11 46 -12 45 11 81 78 122 82 52 167 80 288 94 64 8 102 17
105 25 8 20 17 17 127 -38z m2954 -93 c-3 -68 -10 -91 -37 -143 -44 -82 -173
-203 -225 -210 -11 -2 -24 -9 -28 -16 -5 -8 -8 -7 -8 5 0 9 8 19 18 22 26 9
124 105 158 156 39 58 51 83 22 46 -92 -119 -188 -189 -354 -259 -153 -64
-300 -91 -504 -91 -222 0 -388 31 -536 99 -42 19 -77 35 -80 35 -2 0 -27 15
-56 34 -117 75 -213 184 -237 272 l-10 37 27 -25 c268 -247 795 -347 1250
-238 197 48 317 103 442 202 55 44 140 151 140 178 1 12 3 11 11 -4 7 -11 10
-51 7 -100z m-5294 -242 c46 -32 263 -140 319 -160 22 -8 45 -18 51 -23 20
-16 238 -81 324 -97 48 -9 107 -20 132 -24 58 -11 232 -11 290 -1 81 15 203
51 227 66 17 12 23 12 23 3 0 -13 53 -95 136 -214 54 -76 83 -109 97 -109 7 0
11 -8 9 -17 -1 -9 8 -24 20 -32 12 -9 19 -16 14 -16 -16 0 168 -212 296 -340
135 -136 340 -311 481 -410 26 -18 47 -38 46 -44 0 -6 -8 -42 -17 -79 l-17
-68 -86 59 c-122 83 -298 222 -388 306 -25 24 -61 56 -80 72 -58 48 -308 322
-384 420 -105 136 -211 289 -253 362 -21 37 -20 37 -68 17 -40 -17 -146 -43
-216 -53 -239 -35 -600 46 -920 206 l-75 37 -8 54 c-4 30 -12 60 -18 68 -13
15 -5 43 13 43 8 0 31 -12 52 -26z m1556 -48 c0 -3 -4 -8 -10 -11 -5 -3 -10
-1 -10 4 0 6 5 11 10 11 6 0 10 -2 10 -4z m-2025 -66 c60 -6 115 -16 123 -22
20 -17 49 -78 57 -120 l7 -36 -51 -11 c-44 -9 -63 -8 -124 9 -39 11 -86 20
-104 20 -22 0 -33 5 -33 14 0 8 -13 24 -30 36 -34 24 -39 62 -18 132 l11 39
27 -26 c23 -22 40 -26 135 -35z m2012 18 c-3 -8 -6 -5 -6 6 -1 11 2 17 5 13 3
-3 4 -12 1 -19z m68 12 c3 -5 1 -10 -4 -10 -6 0 -11 5 -11 10 0 6 2 10 4 10 3
0 8 -4 11 -10z m0 -40 c3 -5 1 -10 -4 -10 -6 0 -11 5 -11 10 0 6 2 10 4 10 3
0 8 -4 11 -10z m4465 0 c0 -5 -2 -10 -4 -10 -3 0 -8 5 -11 10 -3 6 -1 10 4 10
6 0 11 -4 11 -10z m-782 -150 c-4 -92 -38 -167 -113 -244 -53 -56 -124 -106
-150 -106 -9 0 -14 -4 -11 -9 4 -5 -3 -7 -14 -4 -19 5 -18 8 12 26 43 26 168
153 168 171 0 7 7 19 15 26 8 7 15 17 15 22 0 6 -20 -16 -45 -48 -78 -100
-170 -165 -323 -228 -97 -40 -108 -46 -92 -56 9 -6 9 -13 -1 -31 -18 -32 -25
-389 -8 -389 18 0 4 -142 -16 -156 -8 -6 -15 -15 -15 -20 0 -5 -10 -14 -23
-20 -12 -6 -49 -24 -82 -41 -109 -55 -263 -70 -360 -34 -96 35 -121 49 -177
97 -29 25 -83 64 -120 87 -64 39 -82 57 -58 57 7 0 9 50 7 144 l-3 144 55 2
c31 0 74 3 96 5 22 2 50 4 63 4 12 1 26 9 29 19 4 9 11 20 16 23 5 4 -33 14
-84 23 -163 28 -179 35 -179 66 0 34 -12 44 -102 84 -115 50 -181 92 -246 154
-59 57 -113 141 -127 197 l-7 30 29 -26 c29 -26 39 -33 133 -96 91 -61 220
-111 378 -146 139 -30 158 -32 352 -32 191 1 215 3 356 32 151 32 276 77 374
135 95 57 239 205 241 248 0 8 5 4 10 -10 6 -14 9 -59 7 -100z m-488 66 c0 -3
-4 -8 -10 -11 -5 -3 -10 -1 -10 4 0 6 5 11 10 11 6 0 10 -2 10 -4z m-36 -21
c-4 -8 -7 -15 -8 -15 0 0 -35 -7 -76 -16 -147 -31 -189 -36 -225 -26 -27 8
-23 10 36 16 37 4 104 18 150 31 102 29 131 31 123 10z m-4889 -55 c31 -34 2
-90 -66 -125 -29 -16 -45 -49 -53 -115 -11 -85 -26 -118 -76 -167 -28 -26 -55
-64 -62 -83 -6 -19 -41 -82 -77 -140 l-66 -104 -3 49 c-2 37 2 55 17 76 12 16
21 38 21 49 0 30 -21 110 -29 110 -3 0 -23 -16 -44 -36 -37 -35 -38 -37 -32
-88 7 -52 -10 -131 -42 -200 -24 -54 -11 298 16 394 l20 75 -22 17 c-18 14
-22 30 -28 100 -4 46 -10 95 -14 109 -6 24 -4 25 23 21 25 -3 31 0 40 25 10
28 10 28 12 3 4 -86 124 -145 177 -87 12 12 23 31 25 41 4 24 90 50 106 34 17
-17 60 0 84 32 25 35 48 38 73 10z m1730 -40 c3 -5 1 -10 -4 -10 -6 0 -11 5
-11 10 0 6 2 10 4 10 3 0 8 -4 11 -10z m4405 -10 c0 -5 -2 -10 -4 -10 -3 0 -8
5 -11 10 -3 6 -1 10 4 10 6 0 11 -4 11 -10z m-4405 -30 c3 -5 1 -10 -4 -10 -6
0 -11 5 -11 10 0 6 2 10 4 10 3 0 8 -4 11 -10z m-1520 -117 c226 -130 487
-213 720 -229 85 -6 233 14 309 42 23 9 48 17 56 20 10 3 36 -29 80 -98 83
-130 243 -338 350 -450 45 -49 79 -88 75 -88 -6 0 -125 124 -171 179 -16 19
-38 44 -49 56 -37 40 -168 210 -218 284 -20 29 -37 46 -37 37 0 -10 -8 -16
-21 -16 -18 0 -21 5 -17 34 3 24 0 32 -9 29 -7 -3 -13 -20 -13 -39 0 -39 -8
-41 -102 -22 -45 9 -85 9 -184 -1 -124 -12 -128 -12 -231 15 -91 23 -112 25
-152 16 -39 -9 -62 -7 -144 12 -54 13 -100 20 -102 16 -3 -4 -24 -10 -47 -14
-23 -4 -48 -12 -55 -18 -8 -7 -34 -8 -67 -4 -92 10 -86 0 -86 163 l0 145 33
-20 c17 -11 55 -33 82 -49z m-254 -5 c34 -42 25 -61 -92 -180 -60 -62 -105
-102 -98 -88 7 14 29 40 49 57 56 48 98 120 106 181 3 28 9 52 11 52 3 0 13
-10 24 -22z m3115 -82 c184 -19 176 -17 207 -68 16 -25 32 -62 37 -82 7 -34 6
-37 -19 -42 -14 -3 -41 -10 -60 -15 -20 -5 -39 -5 -45 0 -14 11 -126 41 -155
41 -12 0 -39 17 -61 39 -45 44 -51 74 -24 141 l16 40 23 -24 c17 -18 37 -26
81 -30z m-856 -66 c0 -5 -2 -10 -4 -10 -3 0 -8 5 -11 10 -3 6 -1 10 4 10 6 0
11 -4 11 -10z m1262 -107 c39 -35 16 -93 -51 -128 -40 -20 -51 -44 -68 -139
-15 -89 -35 -128 -87 -168 -20 -16 -41 -47 -52 -75 -10 -26 -44 -88 -76 -138
-32 -49 -58 -93 -58 -97 0 -4 -5 -8 -11 -8 -19 0 -5 94 20 128 20 29 21 35 10
97 -6 36 -14 65 -18 65 -3 -1 -25 -18 -49 -39 l-43 -38 12 -46 c10 -42 9 -56
-16 -134 -15 -49 -32 -92 -37 -98 -19 -19 -2 311 21 405 25 102 25 110 7 110
-19 0 -25 19 -36 119 -5 47 -12 97 -16 110 -6 21 -5 22 15 11 27 -14 48 -1 54
33 4 24 11 13 21 -35 8 -35 41 -66 87 -79 48 -15 94 7 102 50 5 24 14 32 44
40 48 14 73 14 73 1 0 -22 33 -8 73 30 48 45 53 46 79 23z m4880 -14 c-36 -14
-25 -43 19 -47 49 -4 69 20 37 43 l-23 16 24 -3 c13 -2 29 -11 35 -21 16 -26
-17 -47 -74 -47 -25 0 -54 -6 -65 -14 -11 -7 -36 -23 -55 -33 -19 -11 -107
-62 -195 -113 -88 -51 -205 -119 -260 -150 -55 -31 -145 -83 -200 -115 -181
-106 -215 -124 -215 -116 0 11 25 27 126 84 43 24 95 53 114 64 19 11 62 36
95 55 33 19 105 61 160 93 55 32 145 84 200 115 228 130 235 134 235 156 0 26
19 44 45 43 18 0 18 -1 -3 -10z m-2222 -49 c0 -5 -2 -10 -4 -10 -3 0 -8 5 -11
10 -3 6 -1 10 4 10 6 0 11 -4 11 -10z m515 -50 c3 -5 1 -10 -4 -10 -6 0 -11 5
-11 10 0 6 2 10 4 10 3 0 8 -4 11 -10z m-3209 -113 c34 -20 14 -57 -87 -162
-56 -58 -106 -105 -110 -105 -15 0 11 34 46 60 19 14 39 34 45 45 6 11 22 35
35 54 14 19 25 47 25 62 0 34 22 87 29 68 2 -8 10 -18 17 -22z m3214 -121 c0
-3 -4 -8 -10 -11 -5 -3 -10 -1 -10 4 0 6 5 11 10 11 6 0 10 -2 10 -4z m1477
-113 c92 -53 188 -108 213 -122 25 -14 57 -24 74 -23 67 5 114 -42 67 -68 -33
-17 -45 -11 -20 10 24 20 24 20 5 35 -11 8 -27 15 -36 15 -9 0 -25 -7 -36 -15
-19 -15 -19 -15 5 -35 15 -13 18 -20 9 -20 -19 0 -52 36 -44 48 9 15 -17 32
-218 147 -162 92 -191 106 -211 97 -12 -6 -109 -61 -216 -122 -107 -62 -214
-124 -239 -138 -25 -13 -51 -30 -59 -36 -11 -8 -13 -8 -10 3 3 8 52 41 110 74
57 33 129 74 159 92 170 100 266 154 272 154 3 1 82 -42 175 -96z m-660 32
c23 -14 43 -28 43 -30 0 -7 -93 -55 -98 -50 -3 2 9 12 27 22 28 16 42 43 24
43 -12 1 -59 40 -49 40 5 0 29 -11 53 -25z m-1912 -185 l120 -66 5 -218 5
-218 104 -60 c121 -69 97 -72 260 25 52 31 99 54 104 50 5 -3 -12 -19 -39 -35
-27 -16 -87 -51 -133 -78 l-83 -50 -117 68 -116 68 -8 62 c-8 57 -10 60 -28
49 -16 -10 -19 -24 -19 -77 l0 -65 144 -83 143 -82 124 72 c188 109 197 113
205 105 4 -4 5 -8 3 -10 -23 -18 -324 -187 -332 -187 -10 0 -205 109 -279 156
-36 23 -38 27 -38 79 0 55 -8 67 -29 41 -18 -21 -26 -113 -12 -130 14 -17 342
-206 358 -206 6 0 97 50 202 110 105 61 196 110 201 110 27 0 -2 -22 -123 -90
-165 -94 -238 -137 -251 -150 -6 -6 -15 -10 -22 -10 -6 0 -97 50 -203 111
l-191 111 0 54 c0 39 -4 54 -14 54 -26 0 -37 -28 -34 -86 l3 -58 55 -31 c30
-17 126 -73 213 -123 88 -51 161 -92 163 -92 3 0 111 61 240 136 130 74 239
132 242 129 9 -8 -5 -18 -108 -77 -52 -30 -158 -92 -234 -137 l-139 -81 -71
41 c-39 23 -91 54 -116 69 -25 15 -94 56 -155 90 -60 34 -113 68 -117 74 -4 6
-8 32 -8 59 0 26 -3 47 -6 47 -4 0 -26 -12 -50 -27 -37 -24 -44 -34 -50 -69
-12 -84 -19 -78 228 -219 126 -71 226 -134 225 -140 -4 -10 -17 -18 -407 -242
-129 -75 -238 -137 -242 -140 -5 -2 -8 2 -8 9 0 7 140 94 311 192 177 103 306
183 301 188 -5 5 -42 28 -83 51 -377 217 -349 198 -350 237 -1 19 -4 45 -7 58
-6 20 -9 21 -25 10 -13 -10 -18 -29 -20 -72 l-2 -59 192 -111 c106 -61 191
-115 189 -121 -2 -9 -268 -167 -445 -265 -53 -29 -79 -33 -50 -6 11 11 172
105 417 244 36 20 41 27 30 37 -7 7 -78 49 -158 95 -80 46 -157 90 -172 99
-24 14 -28 23 -30 74 -3 57 -3 57 -25 42 -19 -14 -23 -25 -23 -75 l0 -59 155
-88 c85 -48 155 -92 155 -98 -1 -9 -337 -205 -353 -205 -4 0 -7 4 -7 8 0 8 19
20 213 133 66 38 104 66 98 72 -5 5 -69 44 -142 86 l-134 77 -7 54 c-3 30 -11
56 -17 58 -8 3 -11 74 -11 222 0 206 1 219 19 225 11 3 24 12 31 20 9 11 5 17
-20 30 -18 9 -30 19 -27 21 3 3 19 -2 36 -10 42 -22 59 -20 115 15 l49 31
-103 61 c-57 34 -98 63 -91 65 6 2 33 -9 59 -26 118 -73 156 -90 180 -79 12 6
21 15 19 21 -2 6 -39 31 -83 56 -104 58 -137 80 -131 87 3 3 43 -16 89 -43 46
-26 99 -56 118 -67 38 -21 90 -18 90 6 -1 6 -53 41 -117 77 -63 35 -110 66
-104 68 6 2 58 -23 114 -55 56 -33 133 -75 171 -94 38 -18 71 -41 73 -49 2 -9
13 -21 24 -28 18 -11 19 -9 19 28 0 31 -5 42 -22 51 -13 7 -43 25 -68 41 -25
16 -85 52 -134 81 -49 29 -91 58 -94 65 -2 7 20 -2 49 -20 30 -18 108 -62 174
-98z m635 80 c0 -5 -2 -10 -4 -10 -3 0 -8 5 -11 10 -3 6 -1 10 4 10 6 0 11 -4
11 -10z m1744 -54 c221 -131 481 -279 517 -295 36 -17 37 -18 21 -35 -16 -16
-16 -18 2 -32 23 -17 40 -18 67 -4 23 13 25 36 3 44 -9 4 -14 9 -11 12 9 9 47
-16 47 -31 0 -20 -40 -45 -70 -45 -35 0 -65 23 -65 50 0 23 -23 38 -290 190
-174 99 -289 166 -311 180 -19 12 -29 9 -95 -30 -201 -117 -300 -171 -309
-168 -15 5 374 227 389 222 8 -3 56 -29 105 -58z m-6093 7 l24 -27 -24 15
c-14 9 -27 21 -29 27 -6 19 3 14 29 -15z m54 -53 c10 -11 16 -20 13 -20 -3 0
-13 9 -23 20 -10 11 -16 20 -13 20 3 0 13 -9 23 -20z m110 -101 c11 -12 -1 -5
-27 16 -27 22 -48 41 -48 43 0 7 56 -36 75 -59z m55 -44 c13 -14 21 -25 18
-25 -2 0 -15 11 -28 25 -13 14 -21 25 -18 25 2 0 15 -11 28 -25z m51 -42 c13
-16 12 -17 -3 -4 -17 13 -22 21 -14 21 2 0 10 -8 17 -17z m4534 -3 c3 -5 1
-10 -4 -10 -6 0 -11 5 -11 10 0 6 2 10 4 10 3 0 8 -4 11 -10z m-4460 -50 c3
-6 -1 -7 -9 -4 -18 7 -21 14 -7 14 6 0 13 -4 16 -10z m4005 -170 c0 -5 -2 -10
-4 -10 -3 0 -8 5 -11 10 -3 6 -1 10 4 10 6 0 11 -4 11 -10z m477 -42 c-3 -8
-6 -5 -6 6 -1 11 2 17 5 13 3 -3 4 -12 1 -19z m588 -142 l90 -53 3 -221 2
-220 98 -57 c150 -88 214 -126 386 -224 l159 -91 31 19 c33 20 186 109 296
171 47 27 66 44 68 61 6 44 65 64 113 39 47 -26 -1 -78 -61 -66 -17 3 -47 -8
-95 -36 -273 -158 -345 -198 -355 -198 -6 0 -76 37 -153 82 -78 45 -182 105
-232 133 -253 146 -259 150 -266 175 -4 14 -7 114 -8 222 l-1 197 -90 48 c-49
26 -90 54 -90 61 0 19 9 15 105 -42z m-94 -33 c121 -71 108 -39 111 -288 l3
-218 80 -47 c44 -25 154 -89 245 -142 91 -52 210 -121 265 -153 55 -32 188
-108 295 -170 107 -62 236 -136 285 -165 50 -28 127 -73 172 -99 46 -25 78
-47 73 -49 -16 -6 -12 -39 6 -46 28 -11 61 -6 75 10 11 14 10 18 -6 30 -15 11
-16 14 -3 14 8 0 22 -7 29 -16 30 -36 -72 -73 -113 -41 -9 6 -18 23 -20 36 -2
19 -26 37 -113 86 -60 34 -177 101 -260 149 -82 49 -168 98 -190 111 -116 66
-314 181 -450 260 -55 32 -152 87 -215 123 -63 35 -127 73 -142 84 l-28 19 0
214 0 213 -95 54 c-52 29 -95 56 -95 61 0 15 30 6 91 -30z m-55 -57 l89 -54 1
-217 c0 -119 5 -220 10 -225 5 -5 54 -34 109 -66 55 -31 145 -82 200 -114 55
-31 127 -73 160 -92 210 -122 340 -197 408 -236 l78 -44 -63 -37 c-60 -36
-109 -65 -290 -168 -63 -35 -77 -48 -80 -71 -4 -33 -39 -48 -92 -38 -47 9 -57
33 -26 58 16 13 36 18 65 17 35 -2 58 7 141 55 55 32 131 77 169 99 144 83
138 79 123 92 -12 12 -193 118 -598 348 -96 55 -186 107 -200 117 -14 9 -49
29 -77 45 l-53 28 -2 220 -3 220 -40 21 c-101 52 -144 80 -139 87 9 15 17 11
110 -45z m-71 -46 l85 -51 2 -221 3 -221 125 -72 c153 -88 297 -172 410 -238
47 -27 113 -65 148 -84 35 -20 60 -39 55 -43 -7 -7 -297 -176 -468 -273 -139
-78 -164 -97 -167 -125 -2 -22 -10 -29 -39 -36 -37 -9 -89 7 -96 30 -8 23 28
44 74 44 36 0 62 9 117 42 39 22 116 67 171 98 55 31 145 83 200 115 55 32
117 67 137 79 21 12 38 26 38 32 0 5 -19 20 -42 32 -24 12 -65 35 -93 51 -27
16 -72 43 -100 58 -310 178 -463 267 -475 279 -12 12 -16 55 -18 229 l-3 214
-90 48 c-49 26 -89 51 -89 55 0 18 34 5 115 -42z m-7691 -27 c34 -9 63 -17 64
-19 14 -10 80 -200 73 -207 -5 -5 -12 -1 -16 11 -9 30 -29 18 -54 -32 -20 -37
-29 -44 -80 -59 -107 -32 -190 -18 -241 40 -31 35 -32 39 -27 102 6 68 20 125
36 150 19 30 160 38 245 14z m5889 -143 c54 -30 97 -59 97 -65 0 -6 -19 -21
-42 -32 -24 -12 -71 -38 -105 -58 -40 -23 -63 -31 -63 -23 0 7 39 35 85 61 47
27 83 52 81 56 -3 4 -41 29 -86 55 -44 26 -80 52 -80 58 0 13 0 13 113 -52z
m-1504 -169 c7 -5 12 -14 9 -21 -2 -8 -11 -5 -28 9 -17 14 -20 20 -10 21 8 0
21 -4 29 -9z m-25 -72 c32 -19 47 -39 30 -39 -13 0 -84 44 -84 52 0 13 17 9
54 -13z m-35 -67 c90 -52 90 -73 0 -23 -41 22 -75 45 -77 51 -6 17 10 11 77
-28z m-28 -69 c54 -32 99 -63 99 -70 0 -12 -183 86 -210 113 -31 30 13 13 111
-43z m-816 18 l60 -19 37 -93 c21 -52 38 -100 38 -106 0 -21 -18 -15 -25 8
l-7 21 -23 -22 c-12 -12 -25 -33 -28 -48 -7 -36 -57 -54 -162 -59 -99 -5 -126
4 -166 59 -33 47 -34 58 -8 177 17 82 37 95 139 99 61 1 102 -3 145 -17z
m2220 -575 l110 -64 5 -223 5 -223 120 -69 c133 -77 248 -143 469 -271 l149
-86 116 67 c64 36 149 85 189 107 54 30 72 45 68 58 -2 9 2 25 9 34 23 32 135
18 135 -17 0 -21 -35 -39 -76 -39 -40 0 -70 -15 -242 -115 l-197 -114 -60 34
c-33 18 -85 48 -116 67 -31 18 -174 101 -317 183 l-261 150 -3 219 -3 220
-117 65 c-65 36 -118 69 -118 74 0 17 31 4 135 -57z m-1085 50 c0 -2 -49 -33
-109 -68 l-110 -63 -3 -219 -3 -220 -50 -29 c-116 -69 -155 -88 -155 -79 0 5
42 33 93 62 50 29 95 57 99 64 4 6 8 106 8 223 l0 212 48 27 c26 15 72 42 102
61 48 29 80 41 80 29z m1010 -95 l115 -67 5 -223 5 -223 195 -112 c107 -62
287 -166 400 -231 304 -176 339 -195 349 -195 9 0 52 24 226 125 55 32 145 84
200 115 260 147 290 167 293 191 4 26 27 49 50 49 9 0 6 -7 -9 -19 -20 -16
-21 -21 -10 -35 17 -20 51 -21 77 -1 19 14 18 15 -6 35 -14 11 -20 20 -14 20
7 0 22 -9 35 -19 23 -19 24 -19 5 -40 -14 -15 -31 -21 -65 -21 -53 0 -26 14
-439 -227 -156 -91 -340 -193 -347 -193 -3 0 -91 49 -193 109 -220 128 -628
363 -692 399 -85 48 -80 30 -80 268 l0 213 -101 57 c-111 63 -153 93 -129 93
8 0 67 -30 130 -68z m-940 50 c0 -5 -30 -26 -67 -47 -38 -21 -85 -48 -105 -62
l-38 -25 0 -208 c0 -240 7 -221 -106 -283 -38 -21 -91 -52 -117 -69 -26 -16
-51 -27 -54 -23 -8 8 -16 3 129 87 l128 73 2 220 3 220 105 62 c110 65 120 70
120 55z m-3666 -40 c-5 -6 -36 -25 -69 -43 -45 -25 -61 -40 -63 -58 -2 -14
-11 -31 -20 -37 -19 -16 -76 -17 -103 -3 -26 15 -24 49 4 59 29 11 35 4 12
-13 -16 -12 -17 -16 -6 -30 17 -21 65 -21 82 0 11 14 9 19 -11 36 -17 13 -19
18 -8 14 11 -3 50 14 100 44 45 27 84 47 87 44 2 -2 0 -8 -5 -13z m3744 -3
c-2 -6 -47 -35 -99 -64 -52 -29 -100 -58 -106 -64 -10 -8 -13 -66 -13 -225 l0
-214 -97 -57 c-54 -31 -129 -74 -166 -96 -37 -23 -71 -37 -75 -33 -4 4 -2 10
4 12 7 2 38 20 70 39 33 20 103 60 156 90 l98 55 2 222 3 221 97 56 c53 30
100 58 104 63 11 11 26 8 22 -5z m720 -11 c20 -13 70 -43 110 -66 l72 -42 0
-218 0 -219 133 -77 c232 -136 257 -150 512 -298 366 -211 579 -334 675 -388
63 -36 96 -49 126 -49 27 0 50 -7 65 -20 l24 -20 -24 -20 c-41 -35 -128 -16
-124 27 3 23 -15 34 -752 458 -49 28 -129 74 -176 102 -48 27 -93 53 -100 56
-8 4 -93 53 -189 109 -134 79 -176 109 -181 128 -4 14 -7 113 -8 221 l-1 196
-110 62 c-60 35 -112 67 -115 72 -11 17 26 9 63 -14z m-12 -83 l114 -66 0
-219 c0 -216 0 -219 23 -232 40 -25 188 -111 414 -241 123 -71 221 -132 218
-136 -3 -4 -49 -32 -102 -62 -276 -154 -303 -171 -303 -200 0 -56 -120 -58
-128 -2 -4 25 45 50 81 40 17 -4 62 17 178 84 85 49 173 100 197 112 23 12 42
27 42 32 -1 6 -71 51 -158 100 -86 49 -193 111 -237 136 -44 26 -115 67 -157
91 l-77 44 -3 219 -3 219 -50 29 c-27 15 -80 45 -117 66 -64 35 -82 52 -57 52
7 0 63 -30 125 -66z m-631 47 c-9 -9 -75 -47 -177 -105 l-38 -21 0 -220 0
-220 -78 -43 c-42 -23 -108 -61 -147 -83 -151 -88 -175 -100 -175 -92 0 5 85
58 190 118 l190 110 0 220 1 220 107 62 c96 55 153 80 127 54z m-1045 -775 c0
-9 -93 -56 -99 -50 -3 4 -1 8 4 10 6 2 24 13 40 23 28 18 55 26 55 17z m-549
-93 c27 -14 49 -30 49 -35 0 -6 -3 -8 -7 -6 -58 27 -103 54 -103 60 0 13 9 10
61 -19z m559 13 c0 -9 -103 -67 -109 -61 -3 4 1 10 9 15 8 5 29 18 45 29 28
18 55 27 55 17z m0 -84 c0 -5 -27 -25 -61 -45 -33 -20 -59 -31 -56 -24 2 6 28
26 58 44 62 37 59 36 59 25z m611 -224 c46 5 90 -27 73 -54 -18 -30 -62 -39
-101 -20 -26 12 -33 22 -31 39 2 17 -7 27 -44 47 -27 14 -48 30 -48 37 0 7 25
-2 58 -21 43 -24 67 -31 93 -28z m-1216 -128 c-3 -6 -19 -17 -36 -25 -16 -9
-29 -23 -29 -33 0 -14 -2 -14 -9 -3 -5 8 -26 17 -47 21 l-39 8 45 1 c25 1 61
10 80 21 41 23 43 23 35 10z m-173 -65 c-3 -16 0 -25 9 -25 7 0 10 -2 7 -5 -8
-9 -38 6 -38 19 0 10 19 36 26 36 1 0 -1 -11 -4 -25z"/>
<path d="M5878 7203 c7 -3 16 -2 19 1 4 3 -2 6 -13 5 -11 0 -14 -3 -6 -6z"/>
<path d="M6621 5624 c0 -11 3 -14 6 -6 3 7 2 16 -1 19 -3 4 -6 -2 -5 -13z"/>
<path d="M9713 2923 c-21 -8 -15 -41 8 -48 32 -10 69 3 69 24 0 26 -41 39 -77
24z"/>
<path d="M8915 2107 c-16 -13 -17 -17 -6 -31 15 -18 58 -21 81 -6 12 7 12 13
4 27 -14 23 -54 28 -79 10z"/>
<path d="M8409 2054 c-11 -14 -10 -18 6 -30 10 -8 26 -14 35 -14 9 0 25 6 35
14 16 12 17 16 6 30 -7 9 -26 16 -41 16 -15 0 -34 -7 -41 -16z"/>
<path d="M7605 1596 c-31 -22 -12 -48 32 -44 61 5 54 56 -8 58 -3 0 -14 -6
-24 -14z"/>
<path d="M7721 841 c-16 -11 -8 -39 14 -47 26 -10 65 5 65 25 0 28 -48 41 -79
22z"/>
<path d="M6369 991 l-23 -18 28 -18 c22 -14 32 -16 51 -7 30 14 32 37 6 52
-27 14 -35 13 -62 -9z"/>
<path d="M5024 995 c-19 -15 -19 -15 5 -35 13 -11 27 -20 31 -20 4 0 18 9 31
20 24 20 24 20 5 35 -11 8 -27 15 -36 15 -9 0 -25 -7 -36 -15z"/>
</g>
</svg>
