<?xml version="1.0" standalone="no"?>
<!DOCTYPE svg PUBLIC "-//W3C//DTD SVG 20010904//EN"
 "http://www.w3.org/TR/2001/REC-SVG-20010904/DTD/svg10.dtd">
<svg version="1.0" xmlns="http://www.w3.org/2000/svg"
 width="1790.000000pt" height="976.000000pt" viewBox="0 0 1790.000000 976.000000"
 preserveAspectRatio="xMidYMid meet">

<g transform="translate(0.000000,976.000000) scale(0.100000,-0.100000)"
fill="#000000" stroke="none">
<path d="M11803 9025 c-227 -49 -393 -255 -395 -490 -1 -44 2 -95 6 -112 l8
-33 -606 0 -606 0 0 -560 0 -560 863 0 862 0 0 372 0 373 55 7 c217 27 396
205 431 427 40 263 -138 521 -398 576 -83 18 -138 18 -220 0z m230 -40 c175
-45 311 -188 348 -363 15 -75 6 -193 -21 -264 -45 -122 -154 -230 -279 -280
-81 -32 -251 -32 -333 0 -121 48 -233 161 -278 280 -33 87 -38 212 -12 299 62
202 242 341 447 342 39 1 97 -6 128 -14z m-868 -771 c108 -50 235 -189 195
-214 -7 -4 -30 -7 -51 -6 -21 1 -36 0 -34 -3 3 -2 -1 -11 -8 -20 -11 -14 -10
-14 6 -2 9 8 20 11 23 8 6 -6 -107 -63 -118 -59 -5 1 -8 -3 -8 -9 0 -6 -7 -8
-17 -5 -10 4 -14 4 -10 0 4 -4 -25 -23 -64 -41 l-70 -32 -24 27 c-14 15 -25
32 -25 38 0 13 -50 50 -62 46 -4 -1 -5 4 -2 12 3 8 0 17 -5 21 -6 3 -9 12 -5
18 3 7 -2 3 -11 -8 -16 -19 -16 -19 -9 10 4 17 3 27 -1 23 -11 -10 -77 82 -71
99 3 8 1 11 -4 8 -6 -4 -18 1 -27 11 -16 15 -16 17 3 31 30 23 96 55 129 64
54 15 226 4 270 -17z m76 -11 c13 -17 13 -17 -6 -3 -11 8 -22 16 -24 17 -2 2
0 3 6 3 6 0 17 -8 24 -17z m313 -51 c2 -4 -4 -8 -14 -8 -10 0 -16 4 -14 8 3 4
9 8 14 8 5 0 11 -4 14 -8z m-89 -110 c-3 -3 -11 0 -18 7 -9 10 -8 11 6 5 10
-3 15 -9 12 -12z m-808 -24 c-3 -8 -6 -5 -6 6 -1 11 2 17 5 13 3 -3 4 -12 1
-19z m870 -60 c17 -51 26 -228 12 -242 -5 -5 -154 22 -396 70 -49 10 -84 23
-87 31 -3 8 -2 12 3 8 5 -3 64 20 132 50 174 79 248 116 219 109 -19 -4 -22
-3 -10 5 8 6 23 8 32 5 10 -3 26 -1 35 5 32 18 41 12 60 -41z m-192 2 c3 -6
-1 -7 -9 -4 -18 7 -21 14 -7 14 6 0 13 -4 16 -10z m-130 -60 c-3 -5 -16 -15
-28 -21 -19 -9 -19 -8 3 10 28 23 34 26 25 11z m-578 -52 c-3 -7 -5 -2 -5 12
0 14 2 19 5 13 2 -7 2 -19 0 -25z m520 16 c-3 -3 -12 -4 -19 -1 -8 3 -5 6 6 6
11 1 17 -2 13 -5z m-114 -46 c-2 -5 -13 -8 -23 -8 -10 0 -21 3 -23 8 -3 4 8 7
23 7 15 0 26 -3 23 -7z m534 -40 c-3 -8 -6 -5 -6 6 -1 11 2 17 5 13 3 -3 4
-12 1 -19z m-114 -75 c-7 -2 -19 -2 -25 0 -7 3 -2 5 12 5 14 0 19 -2 13 -5z
m47 -3 c0 -5 -2 -10 -4 -10 -3 0 -8 5 -11 10 -3 6 -1 10 4 10 6 0 11 -4 11
-10z m-593 -276 c-3 -3 -12 -4 -19 -1 -8 3 -5 6 6 6 11 1 17 -2 13 -5z"/>
<path d="M11911 8914 c-1 -33 -15 -44 -57 -44 -31 0 -133 -45 -161 -72 -23
-21 -23 -21 -45 -2 l-23 19 18 -22 c18 -21 18 -22 -4 -53 -13 -17 -29 -28 -36
-25 -37 15 -45 15 -22 0 l25 -17 -19 -56 c-10 -31 -18 -81 -18 -116 1 -69 2
-76 20 -130 13 -37 12 -40 -10 -57 -13 -10 -19 -19 -12 -19 6 0 15 5 18 10 11
18 31 10 54 -21 22 -30 22 -31 4 -52 l-18 -22 23 19 c26 22 28 39 6 57 -9 7
-29 38 -44 70 -27 52 -29 65 -27 150 3 108 22 155 91 227 161 169 436 128 543
-82 60 -118 46 -238 -43 -376 -11 -17 -6 -14 16 9 28 29 35 32 51 23 29 -19
37 -14 10 7 -23 18 -23 19 -8 62 31 87 30 137 -9 286 -4 15 0 23 15 28 12 3
21 11 21 16 0 5 -11 2 -25 -7 -14 -9 -27 -15 -28 -13 -1 2 -13 16 -26 31 -21
24 -22 30 -10 45 13 16 12 17 -4 4 -15 -12 -21 -11 -45 10 -15 13 -30 29 -34
34 -4 6 -8 7 -8 3 0 -4 -21 2 -46 12 -25 11 -58 20 -72 20 -37 0 -50 10 -55
45 l-4 30 -2 -31z"/>
<path d="M11907 8711 c-4 -35 -7 -79 -7 -97 0 -21 -8 -42 -20 -54 -22 -22 -25
-42 -10 -71 12 -22 68 -27 88 -7 19 19 14 65 -7 80 -16 12 -21 32 -28 114 l-9
99 -7 -64z"/>
<path d="M12170 8266 c0 -2 8 -10 18 -17 15 -13 16 -12 3 4 -13 16 -21 21 -21
13z"/>
<path d="M11035 8219 c5 -6 55 0 55 7 0 3 -13 3 -29 2 -16 -1 -28 -5 -26 -9z"/>
<path d="M11108 8213 c7 -3 16 -2 19 1 4 3 -2 6 -13 5 -11 0 -14 -3 -6 -6z"/>
<path d="M10819 8187 c-18 -12 -34 -29 -36 -37 -3 -10 0 -8 7 3 9 14 15 16 26
6 11 -9 17 -9 29 1 8 7 21 10 28 7 8 -3 13 3 13 17 0 29 -27 30 -67 3z m55 4
c3 -5 -4 -11 -17 -15 -39 -10 -53 -6 -27 8 31 17 37 18 44 7z"/>
<path d="M11068 8193 c7 -3 16 -2 19 1 4 3 -2 6 -13 5 -11 0 -14 -3 -6 -6z"/>
<path d="M11111 8190 c-9 -5 -4 -7 13 -7 29 0 32 2 13 10 -8 3 -20 2 -26 -3z"/>
<path d="M11190 8186 c0 -2 8 -10 18 -17 15 -13 16 -12 3 4 -13 16 -21 21 -21
13z"/>
<path d="M11058 8173 c7 -3 16 -2 19 1 4 3 -2 6 -13 5 -11 0 -14 -3 -6 -6z"/>
<path d="M11206 8111 c-3 -5 2 -15 12 -22 15 -12 16 -12 5 2 -7 9 -10 19 -6
22 3 4 4 7 0 7 -3 0 -8 -4 -11 -9z"/>
<path d="M10865 8100 c3 -5 8 -10 11 -10 2 0 4 5 4 10 0 6 -5 10 -11 10 -5 0
-7 -4 -4 -10z"/>
<path d="M10810 8092 c0 -5 7 -15 15 -22 8 -7 15 -8 15 -2 0 5 -7 15 -15 22
-8 7 -15 8 -15 2z"/>
<path d="M11314 8059 c-3 -6 -2 -15 3 -20 5 -5 9 -1 9 11 0 23 -2 24 -12 9z"/>
<path d="M10865 8040 c3 -5 8 -10 11 -10 2 0 4 5 4 10 0 6 -5 10 -11 10 -5 0
-7 -4 -4 -10z"/>
<path d="M10905 7989 c-7 -10 20 -59 31 -59 4 0 1 7 -6 15 -10 12 -10 18 0 30
7 8 17 12 24 8 6 -3 8 -2 3 2 -12 13 -45 16 -52 4z"/>
<path d="M11214 7984 c-18 -14 -18 -15 4 -4 12 6 22 13 22 15 0 8 -5 6 -26
-11z"/>
<path d="M11130 7960 c-9 -6 -10 -10 -3 -10 6 0 15 5 18 10 8 12 4 12 -15 0z"/>
<path d="M13570 8502 c-32 -10 -55 -24 -55 -32 0 -7 -7 -15 -15 -17 -13 -4
-13 -3 0 6 8 6 10 11 5 11 -6 0 -27 -15 -47 -32 -89 -81 -117 -177 -87 -298
21 -81 106 -263 120 -255 5 4 6 -2 2 -11 -5 -13 -3 -15 7 -9 8 5 11 4 7 -2 -4
-6 15 -48 41 -94 72 -125 74 -127 91 -122 13 4 13 3 2 -5 -11 -8 -10 -14 4
-36 10 -14 20 -26 24 -26 12 0 51 71 45 82 -4 7 -3 8 5 4 6 -4 14 0 18 11 4
10 15 30 26 45 11 15 16 31 12 39 -5 6 -4 10 1 6 11 -6 88 119 88 144 0 10 3
16 7 14 7 -5 81 151 99 208 19 60 3 216 -21 201 -5 -3 -6 3 -2 12 4 12 3 15
-6 10 -8 -5 -11 -3 -9 6 3 15 -39 78 -53 78 -6 0 -8 -4 -4 -9 3 -5 1 -12 -4
-16 -6 -3 -8 5 -5 18 3 21 -4 28 -58 52 -79 35 -163 42 -238 17z m207 -138
c20 -16 45 -45 55 -64 38 -70 6 -196 -60 -231 -13 -8 -18 -15 -12 -19 6 -4 -4
-8 -22 -9 -82 -7 -125 -3 -158 14 -19 11 -38 18 -42 17 -5 -1 -7 1 -6 6 1 4
-6 23 -17 42 -29 56 -35 97 -19 149 7 26 23 56 34 66 11 10 17 22 13 28 -4 6
0 8 10 4 8 -3 21 0 27 8 15 18 44 24 108 21 41 -2 60 -9 89 -32z m28 26 c3 -6
-1 -7 -9 -4 -18 7 -21 14 -7 14 6 0 13 -4 16 -10z m28 -15 c-7 -21 -12 -19
-10 4 0 11 5 18 9 15 4 -3 5 -11 1 -19z m130 -140 c-3 -9 -8 -14 -10 -11 -3 3
-2 9 2 15 9 16 15 13 8 -4z m-570 -95 c3 -11 1 -18 -4 -14 -5 3 -9 12 -9 20 0
20 7 17 13 -6z m98 -33 c-10 -9 -11 -8 -5 6 3 10 9 15 12 12 3 -3 0 -11 -7
-18z"/>
<path d="M5910 7700 c-581 -57 -1072 -450 -1260 -1010 -91 -270 -98 -592 -20
-865 102 -358 333 -667 645 -863 138 -86 346 -166 520 -198 146 -28 412 -25
552 4 190 41 386 122 533 221 l75 51 190 -190 190 -190 118 117 117 118 -187
187 -186 187 40 53 c135 176 224 374 275 613 32 146 31 435 -1 585 -43 201
-111 365 -218 527 -301 455 -834 706 -1383 653z m415 -309 c182 -45 316 -108
454 -212 360 -271 541 -737 456 -1175 -96 -502 -502 -891 -1006 -965 -125 -18
-343 -7 -460 24 -243 64 -437 182 -601 364 -480 535 -381 1377 211 1782 146
99 266 150 457 191 118 26 368 22 489 -9z"/>
<path d="M6610 6170 c0 -80 4 -130 10 -130 6 0 10 24 10 54 0 68 7 85 38 97
40 15 52 -4 52 -82 0 -55 3 -69 15 -69 12 0 15 15 15 73 0 101 -26 124 -102
92 -16 -6 -18 -1 -18 44 0 28 -4 51 -10 51 -6 0 -10 -50 -10 -130z"/>
<path d="M5806 6207 c-30 -22 -17 -59 29 -83 49 -25 55 -57 12 -62 -16 -2 -34
1 -41 7 -17 14 -29 2 -15 -16 6 -7 29 -13 50 -13 65 0 93 55 44 85 -14 8 -37
22 -51 31 -21 13 -23 18 -13 30 9 11 23 14 46 9 33 -6 46 8 17 19 -26 10 -59
7 -78 -7z"/>
<path d="M5970 6202 c-33 -27 -39 -99 -10 -135 20 -25 28 -28 69 -25 25 2 45
7 43 13 -1 5 -16 8 -33 7 -19 -2 -38 3 -50 14 -34 30 -24 43 39 46 49 3 57 6
60 24 2 11 -7 32 -18 47 -25 32 -67 36 -100 9z m78 -14 c7 -7 12 -20 12 -30 0
-15 -8 -18 -45 -18 -49 0 -56 11 -28 42 19 21 44 23 61 6z"/>
<path d="M6152 6210 c-35 -15 -18 -31 18 -18 23 7 34 7 45 -2 24 -20 17 -37
-17 -44 -47 -9 -78 -33 -78 -60 0 -35 20 -46 83 -44 l57 2 0 60 c0 78 -16 110
-55 113 -17 1 -40 -2 -53 -7z m78 -104 c0 -30 -22 -49 -52 -44 -33 4 -37 45
-6 57 41 17 58 13 58 -13z"/>
<path d="M6320 6131 c0 -66 3 -91 13 -91 8 0 11 15 9 47 -3 57 15 97 46 101
12 2 22 10 22 18 0 17 -31 19 -48 2 -8 -8 -15 -8 -27 2 -13 11 -15 2 -15 -79z"/>
<path d="M6455 6195 c-42 -41 -28 -139 21 -151 32 -8 77 -1 82 13 2 9 -5 11
-27 7 -44 -9 -71 17 -71 67 0 47 32 74 74 63 28 -7 37 10 10 20 -32 12 -66 5
-89 -19z"/>
<path d="M6807 6074 c-14 -15 -6 -34 14 -34 14 0 19 5 17 17 -3 18 -20 27 -31
17z"/>
<path d="M6895 6070 c-8 -14 3 -30 21 -30 8 0 14 9 14 20 0 21 -24 28 -35 10z"/>
<path d="M6986 6065 c-7 -20 23 -33 34 -14 5 7 6 17 4 21 -9 13 -32 9 -38 -7z"/>
<path d="M13635 7281 c-48 -12 -90 -37 -122 -75 -121 -137 -17 -366 167 -366
65 0 145 43 185 98 40 58 48 158 17 219 -31 61 -91 109 -151 122 -57 12 -53
12 -96 2z"/>
<path d="M15295 6936 c-38 -25 -75 -46 -81 -46 -7 0 -20 10 -28 22 -16 22 -16
22 -16 -10 0 -30 -2 -33 -22 -27 -13 4 -49 24 -80 45 l-57 38 5 -31 c3 -18 7
-38 10 -44 5 -18 -21 -16 -57 2 -27 14 -30 14 -35 0 -10 -24 1 -97 20 -136 26
-55 74 -108 119 -131 23 -11 43 -22 45 -23 1 -1 -2 -14 -7 -28 -8 -20 -7 -27
5 -31 11 -4 14 -1 9 13 -9 29 4 50 26 44 17 -5 20 -11 14 -39 -5 -29 -3 -34
12 -33 10 0 13 3 6 5 -7 3 -8 15 -4 32 6 23 15 28 67 37 112 21 183 76 229
178 20 43 32 57 47 57 l21 0 -20 23 c-11 12 -25 36 -32 54 -18 44 -43 64 -88
70 -33 4 -48 -2 -108 -41z m135 -60 c0 -8 -5 -18 -11 -22 -14 -8 -33 11 -25
25 10 16 36 13 36 -3z"/>
<path d="M12627 6796 c-144 -52 -193 -232 -95 -351 43 -51 99 -77 168 -77 129
0 224 95 223 223 -2 153 -151 256 -296 205z"/>
<path d="M9500 6141 l0 -381 311 0 311 0 49 26 c56 31 93 80 109 145 7 29 10
116 8 235 -3 171 -5 193 -25 229 -24 46 -54 75 -103 101 -32 17 -65 19 -347
22 l-313 3 0 -380z m394 209 c23 -11 52 -36 65 -55 30 -45 39 -122 19 -163
-15 -29 -15 -30 43 -93 63 -69 75 -110 40 -129 -36 -19 -36 -19 -122 78 -45
50 -48 51 -80 41 -55 -16 -122 5 -163 52 -42 45 -50 73 -44 138 6 60 35 103
90 130 54 26 100 27 152 1z"/>
<path d="M9774 6290 c-33 -13 -54 -50 -54 -95 0 -80 93 -126 158 -78 34 26 47
60 38 107 -11 59 -80 91 -142 66z"/>
<path d="M16237 6323 c-4 -3 -7 -33 -7 -65 0 -70 -19 -112 -63 -138 -18 -11
-25 -20 -16 -20 17 0 60 43 77 75 5 11 13 48 17 83 10 85 25 83 51 -7 14 -46
14 -46 8 -6 -9 63 -43 103 -67 78z"/>
<path d="M16413 6133 c9 -2 23 -2 30 0 6 3 -1 5 -18 5 -16 0 -22 -2 -12 -5z"/>
<path d="M16468 6128 c24 -24 14 -47 -25 -53 -62 -11 -62 -16 -2 -10 45 4 58
2 63 -10 11 -29 -5 -44 -52 -50 -67 -9 -77 -16 -15 -11 45 4 53 2 58 -14 10
-30 0 -37 -61 -45 -88 -11 -109 -23 -39 -21 54 1 60 -1 63 -21 3 -18 -4 -23
-40 -31 -24 -6 -33 -10 -21 -11 12 -1 34 4 49 9 22 9 26 15 21 38 -5 22 -1 30
16 38 16 7 21 17 20 38 -1 16 2 38 8 48 8 14 7 25 -4 41 -7 12 -17 34 -21 50
-3 15 -12 27 -18 27 -9 0 -9 -3 0 -12z"/>
<path d="M16353 6123 c9 -2 23 -2 30 0 6 3 -1 5 -18 5 -16 0 -22 -2 -12 -5z"/>
<path d="M16098 6093 c6 -2 18 -2 25 0 6 3 1 5 -13 5 -14 0 -19 -2 -12 -5z"/>
<path d="M16022 6083 c-18 -4 -23 -10 -19 -26 3 -12 9 -52 12 -88 10 -91 12
-94 71 -81 31 6 39 10 23 11 -25 1 -26 4 -36 88 -8 66 -8 90 0 95 13 8 -11 8
-51 1z"/>
<path d="M16223 5870 c43 -22 69 -30 104 -29 l48 2 -55 6 c-30 4 -71 17 -90
29 -19 12 -41 22 -49 22 -8 0 11 -13 42 -30z"/>
<path d="M14165 5753 c-122 -44 -216 -126 -270 -238 -36 -73 -56 -165 -49
-224 3 -22 -5 -53 -21 -89 -14 -30 -25 -56 -25 -58 0 -3 14 3 31 11 17 9 32
15 32 13 76 -156 133 -220 242 -274 193 -94 416 -47 562 120 68 77 103 176
108 304 2 71 8 100 24 127 l20 35 -30 -16 c-17 -8 -32 -14 -33 -12 -1 2 -16
33 -34 69 -41 85 -127 168 -219 212 -62 29 -78 32 -178 35 -86 2 -121 -2 -160
-15z m216 -13 c142 -27 297 -155 334 -277 6 -21 4 -22 -27 -16 -31 6 -32 6
-15 -11 51 -51 67 -83 67 -134 0 -103 -55 -227 -132 -299 -183 -168 -445 -162
-610 15 -25 27 -58 73 -73 102 l-27 52 36 -4 35 -4 -36 39 c-54 60 -64 93 -52
168 32 206 212 366 425 378 12 0 46 -4 75 -9z"/>
<path d="M3346 5248 c-4 -46 -18 -220 -31 -388 -13 -167 -21 -307 -17 -311 4
-4 34 -14 67 -24 33 -9 196 -59 362 -111 167 -53 307 -93 312 -90 16 10 35
148 33 246 -4 291 -175 559 -438 686 -74 35 -207 74 -254 74 -27 0 -28 -1 -34
-82z"/>
<path d="M1202 4881 c-9 -5 -11 -17 -6 -34 4 -18 2 -27 -6 -27 -6 0 -8 -4 -5
-10 8 -13 -25 -1 -47 17 -12 11 -18 12 -24 2 -5 -8 -3 -10 6 -4 8 5 11 4 6 -3
-4 -6 -13 -9 -21 -5 -20 7 -19 -16 0 -37 24 -26 9 -50 -29 -47 -27 2 -31 -2
-34 -24 -2 -21 2 -28 22 -33 36 -9 38 -56 3 -56 -31 0 -35 -5 -29 -35 4 -23 8
-25 37 -19 28 5 34 2 40 -15 4 -13 1 -27 -9 -37 -20 -19 -20 -21 3 -45 16 -18
19 -18 31 -4 12 14 11 18 -1 26 -19 12 -9 11 29 -2 29 -10 32 -14 28 -44 -4
-28 -1 -34 20 -38 19 -3 26 1 30 19 3 13 9 24 13 25 3 0 14 2 23 4 11 2 21 -7
28 -28 7 -18 14 -27 17 -20 2 7 11 9 19 6 14 -5 18 6 15 40 -1 9 5 20 13 23 9
3 13 10 10 15 -10 17 5 9 25 -13 20 -21 21 -21 41 -3 19 17 19 20 4 36 -22 25
-2 63 31 57 17 -4 26 1 34 18 9 21 8 24 -14 30 -13 3 -30 13 -37 22 -10 12
-10 14 0 8 8 -5 12 0 12 13 0 15 6 21 21 21 16 0 20 5 17 28 -3 24 -6 27 -39
24 -29 -3 -36 0 -36 15 0 10 7 26 15 36 14 16 14 20 -6 39 -21 22 -22 22 -35
3 -8 -10 -21 -16 -29 -12 -9 3 -21 0 -28 -6 -10 -9 -11 -9 -5 3 14 23 15 64 2
72 -23 15 -46 8 -49 -14 -5 -34 -45 -37 -58 -4 -10 27 -25 32 -48 17z m-32
-103 c0 -12 -6 -9 -26 13 -19 22 -19 22 4 8 12 -8 22 -17 22 -21z m105 7 c42
2 56 -2 86 -26 20 -16 41 -41 47 -56 14 -38 23 -105 12 -98 -11 7 -22 -24 -13
-37 3 -7 1 -8 -5 -4 -6 3 -14 0 -19 -7 -16 -28 -129 -65 -135 -45 -2 5 -13 10
-25 11 -12 0 -20 4 -17 8 2 4 -1 11 -8 16 -30 19 -43 49 -48 109 -3 34 -3 61
0 60 3 -1 21 14 40 33 19 19 30 32 24 28 -6 -3 -11 0 -11 8 0 9 4 11 11 6 6
-5 34 -8 61 -6z m175 1 c0 -2 -7 -7 -16 -10 -8 -3 -12 -2 -9 4 6 10 25 14 25
6z m-35 -26 c10 -11 16 -20 13 -20 -3 0 -13 9 -23 20 -10 11 -16 20 -13 20 3
0 13 -9 23 -20z m4 -43 c-2 -3 -15 10 -28 27 l-24 31 28 -27 c16 -15 27 -29
24 -31z m-159 -247 c0 -5 -5 -10 -11 -10 -5 0 -7 5 -4 10 3 6 8 10 11 10 2 0
4 -4 4 -10z"/>
<path d="M9708 4610 c-84 -25 -144 -98 -154 -186 -19 -161 121 -280 280 -239
40 10 61 24 97 63 26 28 49 64 53 82 17 86 -1 168 -47 219 -51 55 -156 83
-229 61z"/>
<path d="M3321 4450 c16 -23 181 -251 254 -350 28 -38 95 -130 149 -204 55
-75 105 -141 111 -146 20 -17 157 119 224 221 65 98 109 195 95 208 -5 5 -83
34 -174 66 -207 71 -664 225 -669 225 -2 0 3 -9 10 -20z"/>
<path d="M1588 4408 c-32 -11 -35 -25 -10 -45 9 -8 11 -11 3 -7 -11 5 -13 2
-9 -13 4 -15 -1 -24 -20 -32 -22 -11 -28 -9 -54 16 l-28 27 -32 -32 -32 -32
28 -29 c28 -29 28 -31 12 -55 -14 -22 -20 -24 -42 -16 -33 13 -54 13 -34 0 13
-8 13 -10 -1 -10 -14 0 -28 -26 -29 -52 0 -4 16 -10 35 -14 32 -6 35 -9 35
-40 0 -24 -5 -34 -16 -34 -8 0 -13 -4 -10 -9 3 -4 -6 -6 -19 -3 -28 5 -29 2
-15 -50 8 -29 14 -35 30 -31 11 3 18 8 16 12 -2 3 8 6 24 6 16 0 26 -5 23 -11
-2 -7 0 -15 6 -19 17 -10 13 -28 -14 -58 -23 -24 -24 -32 -2 -28 4 0 6 -4 5
-11 -2 -7 2 -12 9 -13 6 0 15 -4 20 -9 5 -5 3 -6 -4 -2 -7 4 -13 2 -13 -4 0
-6 8 -10 18 -8 9 2 16 10 14 16 -1 7 4 11 10 10 7 -2 12 2 11 9 -3 14 33 9 54
-8 10 -9 12 -23 7 -52 -6 -39 -5 -40 20 -35 14 3 23 1 20 -3 -3 -5 5 -9 17 -9
16 0 20 5 17 18 -6 23 20 47 54 48 24 1 28 -3 34 -33 6 -34 8 -35 43 -28 49 9
51 11 38 45 -10 26 -9 32 8 45 28 20 48 19 63 -5 16 -25 21 -25 56 6 23 20 26
28 16 37 -9 8 -11 8 -7 1 4 -7 -1 -18 -10 -25 -15 -12 -16 -12 -8 1 14 23 15
44 3 52 -9 5 -9 13 0 32 8 19 8 26 -1 30 -8 3 -8 5 2 5 7 1 24 12 36 25 20 22
22 22 33 6 9 -14 8 -19 -3 -24 -10 -3 -12 0 -8 12 6 15 5 15 -10 3 -24 -19
-21 -28 8 -33 30 -6 31 -5 40 45 6 31 4 37 -10 37 -35 0 -52 18 -47 49 3 23
10 31 33 36 16 4 29 13 29 20 0 28 -20 65 -35 65 -9 0 -14 -4 -11 -9 3 -4 -6
-6 -20 -3 -14 2 -30 15 -36 28 -10 20 -8 28 12 49 l24 25 -30 31 -29 30 -26
-28 c-14 -17 -29 -25 -35 -21 -5 5 -17 14 -27 21 -14 10 -15 18 -8 43 9 30 7
32 -29 43 -50 15 -47 16 -54 -24 -6 -32 -10 -35 -41 -35 -31 0 -35 3 -41 35
-7 37 -13 39 -56 23z m322 -89 c0 -5 -4 -7 -10 -4 -5 3 -10 1 -10 -6 0 -7 -3
-10 -6 -6 -8 7 4 27 17 27 5 0 9 -5 9 -11z m25 -19 c-3 -5 -12 -10 -18 -10 -7
0 -6 4 3 10 19 12 23 12 15 0z m-198 -6 c-3 -3 -12 -4 -19 -1 -8 3 -5 6 6 6
11 1 17 -2 13 -5z m-130 -29 c0 -8 -4 -15 -9 -15 -10 0 -11 14 -1 23 9 10 10
9 10 -8z m173 -25 c19 -10 40 -18 45 -19 6 -1 10 -4 10 -8 1 -5 11 -28 24 -52
20 -38 22 -53 17 -105 -4 -34 -7 -72 -7 -85 -1 -14 -4 -19 -8 -13 -8 13 -65
-38 -61 -54 1 -5 -4 -10 -12 -12 -9 -2 -8 0 2 7 17 12 10 14 -14 5 -9 -3 -14
-9 -12 -13 7 -11 -84 -12 -125 -1 -22 6 -54 24 -73 40 -18 16 -36 27 -39 24
-3 -3 -8 0 -13 7 -4 8 -3 10 4 5 16 -10 14 3 -3 34 -19 33 -19 102 0 146 8 20
12 41 8 47 -3 5 -1 7 4 4 11 -7 46 26 37 35 -3 3 0 9 7 14 8 5 10 3 4 -6 -6
-10 -4 -11 11 -5 91 38 126 39 194 5z m77 24 c-3 -3 -12 -4 -19 -1 -8 3 -5 6
6 6 11 1 17 -2 13 -5z m144 -97 c-10 -9 -11 -8 -5 6 3 10 9 15 12 12 3 -3 0
-11 -7 -18z m-586 3 c3 -6 -1 -7 -9 -4 -18 7 -21 14 -7 14 6 0 13 -4 16 -10z
m72 -142 c-3 -8 -6 -5 -6 6 -1 11 2 17 5 13 3 -3 4 -12 1 -19z m-66 -11 c-10
-9 -11 -8 -5 6 3 10 9 15 12 12 3 -3 0 -11 -7 -18z m554 5 c-3 -3 -11 0 -18 7
-9 10 -8 11 6 5 10 -3 15 -9 12 -12z m-471 -98 c3 -8 2 -12 -4 -9 -6 3 -10 10
-10 16 0 14 7 11 14 -7z m81 -62 c-3 -3 -11 0 -18 7 -9 10 -8 11 6 5 10 -3 15
-9 12 -12z m90 -2 c-3 -5 -12 -10 -18 -10 -7 0 -6 4 3 10 19 12 23 12 15 0z
m140 0 c-3 -5 -12 -10 -18 -10 -7 0 -6 4 3 10 19 12 23 12 15 0z m-205 -60
c-8 -5 -19 -10 -25 -10 -5 0 -3 5 5 10 8 5 20 10 25 10 6 0 3 -5 -5 -10z"/>
<path d="M937 4383 c-14 -4 -17 -12 -14 -37 4 -27 1 -32 -17 -34 -11 0 -29 6
-39 15 -16 16 -19 15 -40 -5 l-22 -22 30 -26 c17 -14 25 -23 19 -20 -7 3 -15
-1 -18 -10 -4 -12 -15 -15 -36 -12 -20 3 -30 0 -30 -8 0 -7 -3 -19 -6 -28 -3
-9 -1 -16 6 -16 6 0 8 5 5 10 -3 6 -1 10 4 10 6 0 11 -6 11 -14 0 -8 7 -16 15
-20 21 -8 3 -51 -21 -51 -14 0 -18 -6 -16 -24 1 -14 4 -26 6 -28 8 -8 56 10
50 18 -14 23 6 6 22 -18 16 -25 16 -26 1 -14 -15 12 -17 12 -11 -3 4 -9 0 -24
-9 -34 -14 -15 -14 -19 3 -39 17 -22 18 -22 34 -4 10 10 28 18 41 17 13 0 22
-3 20 -5 -3 -2 0 -13 6 -24 8 -14 8 -18 0 -13 -7 4 -11 -1 -11 -12 0 -13 9
-21 25 -24 19 -4 26 0 34 23 7 21 14 26 29 22 11 -3 23 -15 26 -28 5 -18 11
-21 31 -17 16 3 25 11 25 24 0 12 -4 17 -12 12 -7 -4 -3 4 9 16 20 22 25 22
48 10 22 -12 27 -11 45 5 19 17 19 19 3 37 -23 26 -6 54 29 50 19 -2 27 2 31
19 7 28 1 39 -21 38 -14 0 -13 -2 3 -10 19 -9 19 -9 0 -6 -14 1 -20 11 -23 40
-2 21 0 37 5 36 32 -6 41 2 34 29 -6 22 -12 26 -34 24 -15 -2 -27 1 -27 7 0 6
-5 11 -11 11 -5 0 -8 -4 -5 -8 3 -5 -1 -9 -9 -9 -9 0 -3 14 18 41 21 26 26 38
15 34 -12 -5 -15 -3 -12 6 9 22 -16 29 -36 11 -26 -23 -59 -5 -53 28 4 19 0
26 -18 30 -27 7 -30 5 -33 -20 -2 -11 -13 -19 -28 -21 -20 -2 -27 2 -32 22 -3
15 -10 25 -14 25 -4 -1 -15 -3 -25 -6z m-68 -71 c7 -13 6 -19 -2 -19 -7 0 -13
9 -13 19 0 10 1 18 3 18 1 0 7 -8 12 -18z m84 -5 c3 -7 -3 -13 -14 -14 -15 -1
-16 1 -6 12 15 18 14 18 20 2z m111 -26 c-4 -5 28 -30 39 -31 5 0 5 5 2 10
-10 16 1 11 16 -7 10 -11 10 -14 2 -9 -7 4 -13 3 -13 -3 0 -5 4 -13 10 -16 5
-3 14 -23 20 -43 12 -45 -1 -101 -30 -127 -11 -10 -17 -22 -13 -28 3 -5 1 -7
-5 -4 -15 10 -44 -3 -39 -18 3 -6 -1 -12 -9 -12 -7 0 -11 4 -8 9 3 4 -8 8 -25
8 -72 0 -130 53 -138 125 -8 67 24 116 92 139 32 11 109 17 99 7z m90 -6 c-4
-8 -11 -15 -16 -15 -6 0 -5 6 2 15 7 8 14 15 16 15 2 0 1 -7 -2 -15z m50 -67
c-3 -4 -11 -5 -19 -1 -21 7 -19 12 4 10 11 0 18 -5 15 -9z m-344 -12 c0 -2 -7
-6 -15 -10 -8 -3 -15 -1 -15 4 0 6 7 10 15 10 8 0 15 -2 15 -4z m280 -162 c0
-8 -19 -13 -24 -6 -3 5 1 9 9 9 8 0 15 -2 15 -3z m-283 -29 c0 -8 -4 -12 -9
-9 -5 3 -6 10 -3 15 9 13 12 11 12 -6z"/>
<path d="M12693 3930 c-21 -12 -36 -32 -43 -57 -8 -27 -10 -324 -8 -1003 l3
-965 1510 0 1510 0 3 964 c1 653 -1 976 -8 1003 -8 27 -21 45 -43 58 -31 20
-62 20 -1462 20 -1400 0 -1431 0 -1462 -20z m2827 -1000 l0 -890 -1355 0
-1355 0 0 890 1 890 1354 0 1355 0 0 -890z"/>
<path d="M12825 3800 c-3 -5 -2 -10 4 -10 5 0 13 5 16 10 3 6 2 10 -4 10 -5 0
-13 -4 -16 -10z"/>
<path d="M12860 3803 c0 -5 587 -8 1305 -8 718 0 1305 3 1305 8 0 4 -587 7
-1305 7 -718 0 -1305 -3 -1305 -7z"/>
<path d="M12842 2935 c-1 -467 2 -855 6 -862 6 -10 6 861 -1 1472 -1 132 -3
-142 -5 -610z"/>
<path d="M13150 3596 c0 -2 7 -7 16 -10 8 -3 12 -2 9 4 -6 10 -25 14 -25 6z"/>
<path d="M13199 3585 c5 -5 13 -25 19 -42 8 -25 8 -33 -1 -33 -7 0 -6 -4 3
-11 10 -7 11 -9 2 -7 -8 2 -13 8 -13 13 0 24 -44 55 -78 55 -25 0 -32 3 -22 9
11 7 9 10 -9 16 -12 4 -27 2 -32 -3 -8 -8 -4 -9 13 -5 22 4 21 2 -8 -22 -18
-14 -33 -32 -33 -38 0 -6 7 -1 16 11 8 12 20 22 27 22 8 0 8 -3 -1 -12 -7 -7
-12 -17 -12 -22 0 -6 7 0 16 12 10 14 25 22 45 22 34 0 53 -15 63 -48 4 -12
15 -22 24 -23 13 0 14 -2 3 -6 -28 -11 -84 -53 -72 -54 27 -4 31 -3 32 6 3 35
43 45 66 18 8 -10 12 -13 9 -7 -3 7 9 11 34 10 22 0 40 -5 40 -9 0 -5 10 -5
23 -1 12 4 39 8 60 9 20 1 43 7 50 14 10 11 8 12 -8 4 -11 -6 -29 -8 -40 -6
-21 5 -73 6 -90 3 -5 -1 -27 -2 -47 -1 l-38 1 0 44 c0 25 -5 48 -11 52 -6 3
-9 14 -6 23 3 11 -2 17 -14 17 -11 0 -15 -4 -10 -11z"/>
<path d="M13260 3576 c6 -17 5 -26 -3 -30 -7 -2 -3 -4 8 -5 11 0 29 5 40 10
18 8 18 8 -4 6 -13 -1 -26 4 -28 11 -3 8 1 10 14 5 23 -8 15 1 -14 16 -21 11
-22 10 -13 -13z"/>
<path d="M13476 3588 c3 -4 15 -8 26 -8 12 0 18 3 14 7 -10 10 -46 11 -40 1z"/>
<path d="M13700 3590 c0 -6 7 -10 15 -10 8 0 15 2 15 4 0 2 -7 6 -15 10 -8 3
-15 1 -15 -4z"/>
<path d="M14620 3589 c-25 -7 -25 -7 -2 -8 13 -1 21 -5 17 -10 -3 -5 -1 -13 5
-16 6 -4 9 -1 8 7 -2 7 8 14 22 16 20 2 22 1 10 -7 -17 -12 -4 -13 24 -2 16 6
13 9 -20 17 -21 6 -50 7 -64 3z"/>
<path d="M13335 3580 c-13 -6 -15 -9 -5 -9 8 0 22 4 30 9 18 12 2 12 -25 0z"/>
<path d="M13531 3574 c0 -11 3 -14 6 -6 3 7 2 16 -1 19 -3 4 -6 -2 -5 -13z"/>
<path d="M14323 3583 c48 -2 125 -2 170 0 45 1 6 3 -88 3 -93 0 -130 -2 -82
-3z"/>
<path d="M14923 3583 c26 -2 67 -2 90 0 23 2 2 3 -48 3 -49 0 -68 -1 -42 -3z"/>
<path d="M15088 3583 c6 -2 18 -2 25 0 6 3 1 5 -13 5 -14 0 -19 -2 -12 -5z"/>
<path d="M15138 3583 c6 -2 18 -2 25 0 6 3 1 5 -13 5 -14 0 -19 -2 -12 -5z"/>
<path d="M13138 3573 c7 -3 16 -2 19 1 4 3 -2 6 -13 5 -11 0 -14 -3 -6 -6z"/>
<path d="M13403 3571 c-24 -3 -52 -14 -63 -23 -11 -10 -28 -18 -37 -18 -9 0
-14 -2 -11 -6 3 -3 52 -5 109 -6 94 0 104 2 106 18 1 12 0 13 -3 4 -4 -12 -20
-14 -85 -12 -68 3 -78 6 -68 18 7 8 30 14 55 14 24 0 44 5 44 10 0 6 -1 9 -2
8 -2 0 -22 -4 -45 -7z"/>
<path d="M13643 3573 c9 -2 23 -2 30 0 6 3 -1 5 -18 5 -16 0 -22 -2 -12 -5z"/>
<path d="M13740 3570 c-13 -8 -12 -10 3 -10 9 0 17 5 17 10 0 12 -1 12 -20 0z"/>
<path d="M14213 3565 c9 -6 77 -8 178 -5 174 4 158 8 -59 12 -90 2 -128 0
-119 -7z"/>
<path d="M13185 3560 c3 -5 8 -10 11 -10 2 0 4 5 4 10 0 6 -5 10 -11 10 -5 0
-7 -4 -4 -10z"/>
<path d="M14877 3563 c-3 -5 23 -7 56 -5 104 5 116 9 30 11 -45 0 -84 -2 -86
-6z"/>
<path d="M15116 3557 c6 -17 -3 -18 -132 -18 -175 0 -181 -1 -181 -16 0 -7 4
-10 9 -7 12 8 10 -50 -3 -63 -8 -8 -7 -13 2 -18 7 -5 10 -4 6 1 -3 5 71 8 180
6 102 -2 189 0 194 5 4 4 -75 7 -176 5 l-185 -3 0 41 0 40 178 1 c97 1 166 4
152 6 -13 3 -30 12 -37 21 -12 16 -13 15 -7 -1z"/>
<path d="M15148 3563 c7 -3 16 -2 19 1 4 3 -2 6 -13 5 -11 0 -14 -3 -6 -6z"/>
<path d="M13593 3542 c-3 -14 -11 -18 -31 -14 -15 3 -24 2 -20 -2 3 -4 53 -8
110 -9 100 -2 103 -3 106 -26 6 -40 -41 -51 -51 -13 -4 15 -5 15 -6 0 -1 -19
-4 -20 -58 -20 -30 -1 -31 -2 -21 -22 10 -18 13 -18 16 -4 2 13 13 16 50 13
59 -3 79 7 84 44 2 17 1 28 -3 25 -4 -2 -10 0 -14 6 -3 5 -40 10 -81 10 -43 0
-74 4 -74 10 0 6 12 8 28 5 22 -4 24 -4 7 4 -30 14 -36 13 -42 -7z"/>
<path d="M14178 3553 c7 -3 16 -2 19 1 4 3 -2 6 -13 5 -11 0 -14 -3 -6 -6z"/>
<path d="M14818 3553 c7 -3 16 -2 19 1 4 3 -2 6 -13 5 -11 0 -14 -3 -6 -6z"/>
<path d="M13428 3543 c12 -2 30 -2 40 0 9 3 -1 5 -23 4 -22 0 -30 -2 -17 -4z"/>
<path d="M14171 3524 c6 -8 9 -27 7 -44 -4 -25 -1 -31 16 -36 12 -2 131 -3
266 -2 l245 3 -257 3 -258 2 0 40 0 40 253 3 252 3 -268 1 c-229 1 -266 -1
-256 -13z"/>
<path d="M14085 3510 c-3 -5 1 -10 10 -10 9 0 13 5 10 10 -3 6 -8 10 -10 10
-2 0 -7 -4 -10 -10z"/>
<path d="M14711 3504 c0 -11 3 -14 6 -6 3 7 2 16 -1 19 -3 4 -6 -2 -5 -13z"/>
<path d="M13061 3488 c-1 -10 -5 -18 -10 -18 -17 0 -6 -46 11 -47 12 -1 15 3
11 15 -6 15 -5 16 13 2 17 -14 18 -14 6 2 -8 10 -20 14 -30 11 -15 -6 -15 -4
-4 10 8 9 12 22 9 29 -4 8 -6 7 -6 -4z"/>
<path d="M13502 3480 c0 -14 2 -19 5 -12 2 6 2 18 0 25 -3 6 -5 1 -5 -13z"/>
<path d="M13812 3480 c0 -14 2 -19 5 -12 2 6 2 18 0 25 -3 6 -5 1 -5 -13z"/>
<path d="M14711 3464 c0 -11 3 -14 6 -6 3 7 2 16 -1 19 -3 4 -6 -2 -5 -13z"/>
<path d="M13519 3453 c-12 -14 -12 -15 0 -9 10 7 12 3 6 -15 -5 -18 -4 -20 4
-9 9 13 14 13 43 -3 33 -18 33 -18 11 1 -22 20 -20 40 2 22 8 -7 12 -5 12 5 0
8 -9 15 -19 15 -10 0 -18 -5 -18 -11 0 -6 -6 -9 -12 -6 -7 2 -12 10 -10 16 3
16 -3 14 -19 -6z"/>
<path d="M13476 3451 c-4 -5 -2 -12 3 -15 5 -4 12 -2 15 3 4 5 2 12 -3 15 -5
4 -12 2 -15 -3z"/>
<path d="M13096 3414 c-10 -9 -25 -13 -38 -10 -15 4 -12 1 7 -9 24 -11 26 -14
10 -15 -11 -1 -15 -4 -8 -6 7 -3 20 -1 30 5 13 7 14 10 4 11 -9 0 -6 7 9 20
13 11 18 20 12 20 -6 0 -18 -7 -26 -16z"/>
<path d="M13435 3410 c-3 -5 1 -10 10 -10 9 0 13 5 10 10 -3 6 -8 10 -10 10
-2 0 -7 -4 -10 -10z"/>
<path d="M14322 3413 c48 -2 129 -2 180 0 51 1 12 3 -87 3 -99 0 -141 -2 -93
-3z"/>
<path d="M14636 3408 c3 -4 14 -8 25 -8 11 0 18 4 14 9 -3 6 -14 9 -25 8 -10
-1 -16 -5 -14 -9z"/>
<path d="M14978 3413 c12 -2 32 -2 45 0 12 2 2 4 -23 4 -25 0 -35 -2 -22 -4z"/>
<path d="M13125 3401 c-3 -5 0 -13 6 -17 8 -5 9 -3 4 6 -5 8 -3 11 6 8 8 -3
13 -11 12 -17 -2 -6 2 -11 7 -11 14 0 13 13 -2 28 -14 14 -25 15 -33 3z"/>
<path d="M13310 3390 c0 -5 7 -10 15 -10 8 0 15 5 15 10 0 6 -7 10 -15 10 -8
0 -15 -4 -15 -10z"/>
<path d="M13545 3370 c3 -5 8 -10 11 -10 2 0 4 5 4 10 0 6 -5 10 -11 10 -5 0
-7 -4 -4 -10z"/>
<path d="M14959 3343 c-9 -11 -10 -14 -2 -9 10 5 11 -1 6 -26 -7 -39 -25 -54
-35 -30 -6 16 -7 16 -7 0 -1 -9 4 -20 9 -23 6 -3 10 -11 10 -16 0 -6 -4 -8 -9
-5 -4 3 -17 -4 -27 -16 -14 -15 -16 -22 -6 -25 6 -3 12 -9 12 -15 0 -6 -8 -7
-17 -3 -14 5 -15 3 -6 -6 14 -14 -4 -62 -20 -52 -6 3 -7 1 -4 -5 9 -13 -2 -44
-13 -37 -4 3 -14 -3 -21 -13 -13 -16 -13 -16 5 -2 18 14 19 13 13 -3 -4 -10
-7 -20 -7 -23 0 -2 -6 -2 -12 0 -7 1 -10 1 -5 -1 14 -9 7 -25 -9 -19 -15 6
-15 4 -3 -10 11 -14 22 2 82 123 38 76 71 139 72 141 2 2 13 -2 25 -8 18 -9
24 -8 39 12 l19 22 43 -28 c24 -16 39 -23 32 -16 -6 7 -9 20 -6 29 4 13 3 13
-5 2 -5 -7 -15 -10 -22 -6 -9 6 -9 10 1 17 10 7 9 8 -5 4 -14 -5 -28 2 -48 24
-27 30 -27 31 -6 25 20 -5 21 -4 6 5 -13 8 -24 8 -37 0 -25 -13 -34 -13 -26 0
10 16 -1 11 -16 -7z m-35 -137 c-3 -9 -10 -13 -15 -10 -5 3 -3 11 4 19 15 16
19 13 11 -9z"/>
<path d="M15090 3350 c-8 -5 -10 -10 -5 -10 6 0 17 5 25 10 8 5 11 10 5 10 -5
0 -17 -5 -25 -10z"/>
<path d="M14880 3330 c0 -5 5 -10 10 -10 6 0 10 5 10 10 0 6 -4 10 -10 10 -5
0 -10 -4 -10 -10z"/>
<path d="M15055 3320 c3 -5 8 -10 11 -10 2 0 4 5 4 10 0 6 -5 10 -11 10 -5 0
-7 -4 -4 -10z"/>
<path d="M14886 3264 c-3 -9 -4 -19 -1 -22 3 -3 5 1 5 9 0 11 2 11 10 -1 5 -8
10 -10 10 -5 0 6 -4 16 -9 23 -6 11 -10 10 -15 -4z"/>
<path d="M15218 3273 c6 -2 18 -2 25 0 6 3 1 5 -13 5 -14 0 -19 -2 -12 -5z"/>
<path d="M15184 3245 c-22 -17 -38 -20 -29 -5 3 6 1 10 -5 10 -7 0 -10 -6 -7
-12 2 -7 11 -13 20 -13 24 0 30 -11 17 -34 -6 -12 -19 -20 -28 -19 -10 2 -16
-3 -14 -11 2 -8 -3 -11 -12 -8 -9 4 -18 2 -21 -3 -4 -6 3 -10 14 -10 11 0 23
5 26 10 4 6 11 7 17 4 6 -4 6 -10 -1 -17 -8 -8 -11 -128 -11 -381 0 -203 2
-367 5 -364 3 2 5 169 5 369 l1 366 55 -3 c50 -2 54 -1 37 13 -10 8 -13 12 -6
9 10 -5 31 31 21 38 -1 1 -20 10 -40 20 -20 9 -40 21 -43 26 -6 10 30 24 43
16 4 -2 14 -1 22 5 11 6 7 9 -16 9 -16 0 -39 -7 -50 -15z"/>
<path d="M15007 3239 c-9 -6 -15 -14 -12 -20 4 -5 2 -9 -3 -9 -17 0 -33 -50
-22 -71 15 -27 18 -24 14 16 -1 19 1 37 6 40 7 5 17 -19 29 -75 3 -14 6 -188
6 -388 0 -199 3 -362 7 -362 5 0 8 169 7 375 0 206 3 380 7 386 4 8 3 9 -4 5
-7 -4 -12 -2 -12 3 0 6 8 11 18 11 16 0 17 -26 17 -412 l0 -413 2 408 c2 224
7 407 12 407 4 0 13 12 19 26 7 14 17 22 22 19 6 -3 10 -4 10 -1 0 4 -97 66
-103 66 -1 0 -10 -5 -20 -11z m73 -35 c0 -2 -6 -1 -14 2 -8 3 -17 0 -21 -6 -4
-7 3 -9 24 -5 32 5 37 0 22 -24 -5 -8 -19 -12 -35 -9 -14 3 -27 0 -29 -6 -2
-6 -9 4 -15 22 -9 26 -8 32 3 32 8 0 16 4 19 9 4 5 -4 7 -16 5 -21 -4 -21 -4
-3 4 14 6 27 4 43 -6 12 -8 22 -16 22 -18z"/>
<path d="M15021 3184 c0 -11 3 -14 6 -6 3 7 2 16 -1 19 -3 4 -6 -2 -5 -13z"/>
<path d="M15048 3173 c7 -3 16 -2 19 1 4 3 -2 6 -13 5 -11 0 -14 -3 -6 -6z"/>
<path d="M14085 3171 c0 -14 3 -31 7 -36 3 -6 0 -19 -8 -30 -8 -10 -14 -15
-14 -11 0 4 -14 -2 -30 -14 -17 -12 -28 -26 -25 -31 4 -5 1 -9 -5 -9 -8 0 -10
-9 -7 -22 7 -25 -26 -78 -39 -65 -5 4 -8 26 -9 47 0 39 -14 57 -16 23 -1 -18
-1 -23 9 -58 4 -16 3 -18 -9 -9 -11 9 -17 9 -26 -1 -6 -7 -9 -16 -5 -21 4 -4
-1 -4 -10 -1 -10 3 -20 2 -23 -3 -4 -6 -11 -10 -16 -10 -6 0 -7 5 -3 12 4 7 3
8 -4 4 -12 -7 -46 7 -75 32 -13 12 -14 17 -5 23 7 5 -3 7 -22 7 -40 -1 -70
-22 -70 -50 0 -10 -4 -18 -10 -18 -5 0 -10 -8 -10 -17 0 -15 1 -15 14 2 8 11
19 16 30 12 22 -9 21 -15 -17 -73 -18 -27 -31 -56 -29 -63 3 -8 0 -11 -6 -7
-6 3 -13 3 -16 -2 -2 -4 11 -8 30 -8 34 0 46 17 22 32 -7 4 -8 3 -4 -4 4 -7 2
-12 -3 -12 -13 0 -14 27 -2 35 5 3 18 -6 29 -20 19 -24 20 -24 25 -5 3 11 1
17 -4 14 -11 -6 -39 13 -39 28 0 5 7 5 18 -1 14 -7 18 -6 18 9 0 14 -3 16 -13
8 -25 -20 -13 8 17 42 16 18 31 38 33 44 3 7 28 -1 68 -21 47 -24 66 -30 76
-21 7 6 13 7 14 2 0 -5 4 1 10 14 5 15 13 20 21 16 9 -6 9 -9 0 -12 -7 -2 -9
-8 -6 -14 3 -5 42 43 86 106 77 113 90 126 103 106 3 -6 17 -7 31 -4 20 5 26
2 31 -15 3 -11 10 -21 15 -21 6 0 8 6 5 14 -3 7 -1 18 5 24 16 16 17 56 2 70
-17 15 -18 8 -3 -20 8 -15 8 -23 -1 -32 -8 -8 -10 -7 -5 5 4 10 1 20 -5 24 -7
4 -9 -4 -5 -25 4 -20 2 -29 -5 -25 -5 3 -10 20 -10 36 0 32 -5 36 -65 42 -37
4 -40 2 -40 -22z m25 -6 c0 -14 -4 -25 -9 -25 -4 0 -6 11 -3 25 2 14 6 25 8
25 2 0 4 -11 4 -25z m-49 -92 c-19 -34 -51 -68 -51 -56 0 6 5 15 10 18 6 4 7
11 4 17 -4 7 -2 8 4 4 6 -3 16 3 22 14 6 11 13 20 16 20 2 0 0 -8 -5 -17z
m-144 -150 c-21 -21 -29 -25 -39 -15 -9 9 -7 12 10 12 13 0 25 7 28 15 4 8 11
15 17 15 7 0 -1 -12 -16 -27z"/>
<path d="M14890 3018 c-34 -68 -63 -124 -64 -125 -1 -1 -12 0 -24 4 -18 4 -20
8 -11 25 6 11 8 22 5 26 -3 3 -6 -1 -6 -8 0 -9 -4 -8 -13 4 -8 11 -20 16 -28
13 -9 -4 -7 -6 6 -6 16 -1 17 -3 6 -10 -20 -13 -52 5 -45 24 5 11 -2 14 -25
12 -17 -1 -31 -2 -31 -3 0 0 24 -16 53 -34 28 -18 54 -35 56 -37 3 -2 -1 -9
-7 -15 -16 -16 -15 -57 2 -64 22 -8 7 -54 -18 -54 -45 0 -46 -5 -41 -200 3
-139 1 -186 -8 -192 -9 -6 -9 -8 1 -8 6 0 12 -10 12 -22 0 -32 11 -44 43 -50
19 -4 27 -1 27 8 0 9 -11 14 -30 14 l-30 0 0 220 0 220 35 0 35 0 2 -212 c2
-236 6 -215 10 49 2 94 0 169 -4 167 -11 -7 -21 37 -11 47 13 13 45 -1 39 -17
-8 -20 -9 -457 -1 -476 8 -20 75 -26 75 -8 0 6 -16 10 -35 10 l-35 0 2 237 3
238 30 0 c17 0 36 4 43 8 14 10 6 30 -9 21 -5 -3 -7 -10 -4 -15 4 -5 1 -9 -4
-9 -11 0 -13 6 -15 44 -1 11 -7 20 -14 22 -7 1 -8 0 -2 -3 5 -2 10 -9 10 -14
0 -6 -5 -7 -11 -4 -6 4 -9 0 -7 -10 2 -10 -3 -20 -11 -23 -8 -3 -11 0 -7 7 5
7 1 9 -11 4 -17 -6 -17 -6 0 14 9 11 15 27 11 36 -5 13 0 15 23 11 20 -3 24
-2 13 5 -8 5 -18 7 -22 5 -10 -6 -10 7 0 22 4 6 14 10 23 9 9 -2 16 3 16 11 0
11 -3 11 -16 1 -12 -10 -14 -9 -8 6 4 10 7 21 7 23 0 3 4 2 10 -1 6 -4 7 1 3
11 -6 15 -4 15 19 0 25 -16 25 -16 23 6 -4 38 -5 39 -15 33 -16 -10 -12 12 6
29 8 9 17 16 18 16 1 0 3 -66 5 -147 1 -81 5 -150 7 -153 3 -3 4 74 3 171 -1
96 1 181 5 188 5 7 6 15 3 17 -3 3 -33 -50 -67 -118z m30 -30 c0 -13 -23 -5
-28 10 -2 7 2 10 12 6 9 -3 16 -11 16 -16z m-140 -68 c0 -5 -2 -10 -4 -10 -3
0 -8 5 -11 10 -3 6 -1 10 4 10 6 0 11 -4 11 -10z m90 -110 c0 -5 -5 -10 -11
-10 -5 0 -7 5 -4 10 3 6 8 10 11 10 2 0 4 -4 4 -10z"/>
<path d="M14004 3109 c-11 -18 11 -32 25 -16 9 12 8 16 -3 20 -9 4 -18 1 -22
-4z"/>
<path d="M14823 3101 c10 -12 9 -14 -6 -8 -11 4 -16 3 -12 -3 9 -15 23 -12 34
8 7 14 6 18 -9 18 -15 0 -17 -3 -7 -15z"/>
<path d="M14973 3103 c9 -2 23 -2 30 0 6 3 -1 5 -18 5 -16 0 -22 -2 -12 -5z"/>
<path d="M15215 3100 c-13 -6 -15 -9 -5 -9 8 0 22 4 30 9 18 12 2 12 -25 0z"/>
<path d="M15240 3080 c-21 -7 -21 -8 -5 -9 11 0 27 4 35 9 18 11 5 11 -30 0z"/>
<path d="M14093 3023 c-46 -67 -64 -99 -35 -64 19 23 20 23 30 5 6 -10 12 -14
12 -8 0 5 -5 15 -11 21 -8 8 -6 18 6 37 14 21 20 24 37 15 13 -7 18 -7 14 -1
-3 6 -2 13 4 17 6 4 13 -7 16 -25 4 -17 11 -33 15 -36 17 -10 9 -25 -10 -19
-11 3 -22 2 -25 -3 -3 -5 8 -8 24 -7 19 1 30 -3 30 -12 0 -7 4 -13 9 -13 5 0
-3 29 -18 65 -29 67 -41 87 -41 66 0 -7 -5 -9 -10 -6 -6 4 -8 11 -5 16 4 5 4
9 2 9 -2 0 -22 -26 -44 -57z"/>
<path d="M14219 3048 c23 -59 40 -92 41 -79 0 11 4 10 16 -5 14 -18 15 -18 4
4 -6 12 -15 22 -20 22 -4 0 -14 16 -20 35 -6 19 -16 37 -21 40 -5 4 -5 -3 0
-17z"/>
<path d="M15192 3058 c-9 -9 -11 -96 -10 -342 l3 -331 2 328 3 327 35 0 35 0
0 -360 0 -360 -29 0 c-39 0 -48 -15 -12 -18 16 -1 34 4 41 12 8 11 12 111 13
379 l2 364 -39 -5 c-28 -4 -37 -2 -32 6 9 15 3 15 -12 0z"/>
<path d="M13745 3030 c3 -6 1 -10 -6 -10 -7 0 -10 -3 -6 -6 3 -3 13 -2 22 4
16 8 16 9 1 15 -10 4 -15 3 -11 -3z"/>
<path d="M13810 3031 c0 -5 7 -11 14 -14 10 -4 13 -1 9 9 -6 15 -23 19 -23 5z"/>
<path d="M14271 3024 c0 -11 3 -14 6 -6 3 7 2 16 -1 19 -3 4 -6 -2 -5 -13z"/>
<path d="M14299 3013 c-8 -20 -7 -33 1 -46 6 -10 8 -23 4 -30 -4 -7 -3 -8 2
-4 8 8 14 107 6 107 -1 0 -7 -12 -13 -27z m8 -35 c-3 -8 -6 -5 -6 6 -1 11 2
17 5 13 3 -3 4 -12 1 -19z"/>
<path d="M14531 3023 c7 -7 6 -14 -1 -18 -5 -3 -10 -1 -10 4 0 24 -16 9 -18
-16 -1 -21 1 -24 8 -13 15 23 20 7 6 -20 -7 -14 -18 -24 -25 -22 -7 1 -10 -2
-6 -8 10 -17 25 -11 37 15 6 14 17 25 25 25 24 0 26 -28 3 -67 -12 -21 -14
-29 -5 -18 9 11 21 19 26 17 6 -1 9 3 8 10 -3 23 1 38 9 38 9 0 10 -40 1 -55
-3 -5 -5 -26 -6 -45 0 -27 1 -29 4 -7 4 24 8 27 44 27 l39 0 0 -277 c0 -152 3
-274 6 -271 3 3 5 114 4 246 0 155 3 243 10 247 5 3 10 11 10 16 0 6 -4 7 -10
4 -6 -4 -10 6 -10 22 0 20 3 24 9 14 7 -11 9 -11 14 0 4 10 6 9 6 -3 1 -10 9
-18 19 -18 14 0 15 2 2 10 -8 5 -10 10 -5 10 6 0 3 5 -5 10 -8 5 -34 6 -59 3
-36 -5 -43 -4 -36 8 6 11 5 12 -6 2 -21 -20 -34 -15 -15 6 13 15 14 20 4 24
-7 2 -10 7 -7 11 4 4 14 0 23 -9 9 -9 16 -13 16 -9 0 4 6 0 13 -11 12 -15 15
-16 22 -4 5 8 5 11 1 7 -4 -3 -16 1 -25 10 -10 10 -26 22 -35 27 -25 14 -10
48 18 41 19 -5 20 -4 4 8 -25 18 -10 28 16 11 25 -18 52 -19 59 -2 3 9 -6 13
-32 13 -20 0 -35 5 -34 11 1 5 -4 10 -12 10 -8 0 -12 -4 -9 -9 3 -4 1 -8 -5
-8 -5 0 -13 4 -16 10 -3 5 -23 8 -44 7 -28 -1 -37 -5 -30 -14z"/>
<path d="M13970 3010 c0 -5 5 -10 10 -10 6 0 10 5 10 10 0 6 -4 10 -10 10 -5
0 -10 -4 -10 -10z"/>
<path d="M14105 3003 c-3 -9 -1 -21 4 -26 6 -6 6 -19 0 -35 -5 -13 -7 -27 -5
-30 3 -2 8 7 11 21 4 14 15 33 26 43 10 9 19 22 19 28 0 6 -7 0 -16 -12 -15
-21 -34 -22 -34 -1 0 6 4 8 9 4 5 -3 12 -1 15 4 3 5 0 11 -8 14 -8 3 -17 -1
-21 -10z"/>
<path d="M14474 2986 c-10 -21 -9 -25 7 -29 13 -3 17 -1 12 6 -4 7 -6 20 -5
30 4 24 -1 21 -14 -7z"/>
<path d="M13810 2996 c0 -2 7 -9 15 -16 13 -11 14 -10 9 4 -5 14 -24 23 -24
12z"/>
<path d="M14792 2987 c10 -8 14 -18 10 -22 -4 -5 -1 -5 6 -1 17 10 15 14 -10
26 -21 10 -21 10 -6 -3z"/>
<path d="M13611 2939 c15 -28 25 -30 36 -6 10 21 8 23 -17 23 -24 0 -27 -2
-19 -17z m29 1 c0 -5 -4 -10 -10 -10 -5 0 -10 5 -10 10 0 6 5 10 10 10 6 0 10
-4 10 -10z"/>
<path d="M15342 2935 c0 -16 2 -22 5 -12 2 9 2 23 0 30 -3 6 -5 -1 -5 -18z"/>
<path d="M14260 2945 c0 -5 5 -17 10 -25 5 -8 10 -10 10 -5 0 6 -5 17 -10 25
-5 8 -10 11 -10 5z"/>
<path d="M14045 2930 l-20 -9 20 -1 20 -1 -20 -9 c-11 -5 -14 -9 -6 -9 11 -1
11 -4 1 -16 -7 -9 -8 -15 -2 -15 5 0 12 7 16 15 3 8 12 12 21 9 8 -3 15 -1 15
6 0 6 -4 9 -9 6 -5 -3 -11 1 -14 8 -3 8 -1 17 6 20 7 2 8 4 2 5 -5 0 -19 -4
-30 -9z"/>
<path d="M13603 2893 c0 -16 2 -21 7 -13 5 8 10 9 14 1 7 -11 -41 -91 -55 -91
-5 0 -9 8 -10 18 0 9 -3 12 -5 6 -3 -6 -1 -21 4 -33 7 -21 11 -18 46 33 37 53
37 55 21 80 -10 14 -18 26 -19 26 0 0 -2 -12 -3 -27z"/>
<path d="M14204 2620 c0 -168 2 -236 3 -152 2 83 2 221 0 305 -1 83 -3 15 -3
-153z"/>
<path d="M14221 2910 c0 -14 28 -72 29 -59 0 4 -7 22 -15 40 -8 19 -14 27 -14
19z"/>
<path d="M14286 2905 c-2 -7 -1 -18 4 -24 6 -11 9 -10 16 0 5 8 9 19 10 25 2
14 -24 14 -30 -1z"/>
<path d="M13741 2901 c-8 -5 -9 -11 -3 -15 6 -3 14 -1 18 5 4 8 9 7 15 -2 4
-7 11 -10 16 -6 4 5 1 12 -7 17 -18 12 -22 12 -39 1z"/>
<path d="M14001 2888 c-12 -19 -11 -23 5 -35 20 -15 39 -16 69 -3 15 6 9 8
-22 7 -49 -1 -61 6 -43 28 7 9 11 17 9 20 -3 2 -11 -5 -18 -17z"/>
<path d="M14480 2899 c0 -5 5 -7 10 -4 6 3 10 8 10 11 0 2 -4 4 -10 4 -5 0
-10 -5 -10 -11z"/>
<path d="M13818 2871 c12 -11 18 -22 13 -25 -5 -3 -14 1 -21 9 -7 8 -17 15
-23 15 -6 0 -2 -7 9 -16 19 -15 19 -15 -3 -11 -12 3 -24 -1 -26 -8 -5 -12 29
-11 63 2 8 4 18 5 23 5 19 -5 3 15 -26 31 -32 17 -32 17 -9 -2z"/>
<path d="M13908 2868 c-2 -15 -9 -22 -21 -22 -24 2 -22 -12 3 -19 11 -3 20
-13 20 -22 0 -9 -4 -13 -10 -10 -5 3 -10 2 -10 -4 0 -5 6 -11 13 -14 6 -2 8
-8 4 -13 -5 -5 -15 -1 -23 10 -13 18 -14 18 -14 2 0 -9 -5 -14 -10 -11 -6 3
-8 17 -6 30 3 14 0 27 -5 31 -5 3 -9 2 -8 -3 1 -4 1 -119 0 -255 l-1 -248 -35
0 c-29 0 -35 4 -35 21 0 11 -5 17 -10 14 -6 -4 -8 -11 -5 -16 4 -5 0 -9 -7
-10 -7 0 0 -6 16 -14 20 -8 40 -10 59 -4 17 5 34 6 38 3 5 -3 9 0 9 5 0 6 -6
11 -12 11 -9 0 -8 4 2 10 11 7 11 10 2 10 -11 0 -13 40 -10 198 3 177 7 211
28 212 3 0 4 -97 2 -217 -2 -135 1 -220 7 -226 6 -6 26 -12 46 -14 l35 -4 0
43 c0 24 1 123 1 222 1 115 -3 182 -10 189 -8 8 -6 17 7 31 17 20 16 21 -3 5
-34 -27 -40 -28 -41 -4 -1 16 3 21 15 18 9 -2 25 5 36 16 18 21 18 22 -5 46
-30 31 -58 33 -62 3z m52 -333 l0 -215 -35 0 -35 0 0 215 0 215 35 0 35 0 0
-215z"/>
<path d="M13158 2873 c7 -3 16 -2 19 1 4 3 -2 6 -13 5 -11 0 -14 -3 -6 -6z"/>
<path d="M13240 2868 c14 -6 39 -11 56 -11 22 -1 34 -8 41 -24 10 -21 10 -22
-9 -9 -11 8 -27 12 -36 9 -11 -5 -13 -3 -7 7 5 9 4 11 -3 6 -7 -4 -12 -13 -12
-19 0 -7 -8 -22 -18 -34 l-17 -23 0 28 c0 15 4 33 8 40 5 7 4 12 -2 12 -13 0
-25 -45 -16 -59 3 -6 1 -11 -5 -11 -15 0 -79 -43 -85 -58 -2 -7 13 2 35 19 22
18 42 30 45 27 7 -6 -78 -74 -88 -70 -5 1 -6 -2 -2 -8 3 -5 1 -10 -6 -10 -7 0
-9 -3 -6 -7 4 -4 22 7 40 24 17 16 49 43 70 58 l38 28 22 -21 c12 -11 27 -22
32 -24 6 -2 9 -7 7 -11 -1 -5 3 -5 9 -2 7 5 7 11 1 17 -7 7 -4 20 8 41 13 22
16 36 10 48 -7 12 -6 19 3 22 7 3 5 6 -5 6 -10 1 -18 7 -18 14 0 9 -3 8 -9 -2
-6 -8 -14 -10 -22 -5 -8 5 -30 9 -49 10 -33 2 -34 2 -10 -8z"/>
<path d="M14113 2800 c0 -47 2 -66 4 -42 2 23 2 61 0 85 -2 23 -4 4 -4 -43z"/>
<path d="M14376 2865 c-9 -26 -7 -32 5 -12 6 10 9 21 6 23 -2 3 -7 -2 -11 -11z"/>
<path d="M14412 2859 c-8 -12 -8 -20 -2 -24 6 -4 7 -11 4 -17 -4 -7 -2 -8 4
-4 16 10 15 -5 -2 -27 -14 -18 -14 -17 -21 2 -7 22 -29 28 -40 11 -3 -6 1 -7
10 -4 9 4 15 3 14 -2 -6 -36 22 -41 44 -8 27 39 58 98 43 80 -9 -11 -16 -15
-16 -9 0 20 -26 21 -38 2z m30 -21 c-12 -12 -35 -1 -27 12 3 5 13 6 21 3 10
-4 12 -9 6 -15z"/>
<path d="M13742 2850 c0 -14 2 -19 5 -12 2 6 2 18 0 25 -3 6 -5 1 -5 -13z"/>
<path d="M14306 2861 c-3 -5 7 -37 23 -71 22 -49 29 -59 35 -44 4 11 2 22 -7
29 -20 14 -49 74 -42 85 3 6 4 10 1 10 -3 0 -7 -4 -10 -9z"/>
<path d="M15344 2675 c0 -110 2 -156 3 -103 2 53 2 143 0 200 -1 57 -3 13 -3
-97z"/>
<path d="M14330 2846 c0 -9 5 -16 10 -16 6 0 10 4 10 9 0 6 -4 13 -10 16 -5 3
-10 -1 -10 -9z"/>
<path d="M14494 2813 c-16 -27 -27 -51 -26 -55 1 -5 -2 -8 -8 -8 -16 0 -32
-38 -18 -46 6 -4 8 -3 5 2 -3 6 -2 16 3 24 17 28 21 -15 18 -217 -2 -111 0
-199 4 -197 4 2 9 0 13 -6 9 -14 47 -12 68 4 15 12 12 13 -28 9 l-45 -6 0 201
c0 110 -2 206 -5 214 -4 10 6 13 37 12 40 -1 40 -1 6 3 -21 2 -38 9 -38 14 0
22 21 48 34 43 8 -3 17 -1 21 5 4 7 0 8 -11 4 -14 -5 -16 -3 -11 11 4 10 7 20
7 23 0 3 8 -1 18 -8 15 -13 16 -12 3 4 -7 9 -15 17 -16 17 -2 0 -16 -21 -31
-47z"/>
<path d="M14080 2615 c0 -126 2 -226 5 -224 6 7 7 440 1 447 -3 3 -6 -97 -6
-223z"/>
<path d="M14246 2831 c-4 -6 -2 -11 4 -11 6 0 8 -11 5 -27 -5 -27 -5 -27 5 -5
11 26 -2 64 -14 43z"/>
<path d="M13989 2793 c-2 -16 -2 -129 1 -253 l6 -225 2 253 c2 235 0 292 -9
225z"/>
<path d="M14545 2799 c-4 -11 -4 -23 -1 -26 3 -4 6 1 6 10 0 8 5 17 12 19 9 3
9 6 1 11 -7 4 -14 -1 -18 -14z"/>
<path d="M14725 2810 c-4 -6 -11 -8 -16 -5 -5 3 -6 -2 -2 -11 5 -15 8 -15 17
-2 6 8 17 13 25 10 8 -3 11 0 7 7 -9 14 -23 14 -31 1z"/>
<path d="M13515 2800 c-4 -7 -2 -15 4 -19 6 -4 9 -16 5 -27 -4 -14 -3 -16 4
-5 9 12 11 12 15 0 4 -12 2 -5 -7 38 -4 20 -13 25 -21 13z"/>
<path d="M13760 2795 c0 -9 -10 -20 -22 -26 l-23 -10 23 5 c12 2 22 0 22 -5 0
-8 -14 -13 -32 -10 -3 0 -7 -92 -8 -204 0 -113 3 -205 7 -205 4 0 7 88 5 196
-2 157 0 195 10 192 10 -4 13 -46 13 -181 0 -98 3 -177 8 -177 4 0 7 99 7 220
-1 121 -3 220 -6 220 -2 0 -4 -7 -4 -15z"/>
<path d="M14231 2768 c-1 -45 4 -53 32 -49 10 1 9 -11 -3 -29 -8 -12 -10 -12
-10 -1 0 8 -2 12 -5 9 -3 -3 -2 -15 3 -28 6 -15 18 -24 38 -26 17 -2 24 0 16
5 -7 4 -10 15 -6 25 5 13 9 14 20 5 9 -7 7 6 -7 40 -19 44 -24 49 -40 40 -20
-10 -23 -7 -32 36 -3 11 -5 -1 -6 -27z m29 -30 c0 22 29 13 36 -12 6 -25 -27
-89 -34 -67 -2 6 0 17 6 24 21 27 21 44 0 43 -12 0 -23 6 -25 14 -4 13 -3 13
6 0 7 -10 11 -11 11 -2z"/>
<path d="M13145 2790 c-3 -5 -1 -10 4 -10 6 0 11 5 11 10 0 6 -2 10 -4 10 -3
0 -8 -4 -11 -10z"/>
<path d="M13355 2790 c-6 -9 65 -56 78 -52 4 1 7 -2 7 -8 0 -12 60 -44 68 -36
3 3 -9 11 -26 17 -17 6 -33 17 -36 25 -3 9 -10 13 -15 10 -5 -3 -23 7 -40 23
-17 16 -33 25 -36 21z"/>
<path d="M13430 2790 c-9 -6 -10 -10 -3 -10 6 0 15 5 18 10 8 12 4 12 -15 0z"/>
<path d="M13475 2790 c3 -5 8 -10 11 -10 2 0 4 5 4 10 0 6 -5 10 -11 10 -5 0
-7 -4 -4 -10z"/>
<path d="M14584 2640 c0 -91 2 -128 3 -82 2 45 2 119 0 165 -1 45 -3 8 -3 -83z"/>
<path d="M14917 2793 c-4 -3 -6 -112 -5 -242 0 -130 3 -220 5 -202 3 19 11 40
19 46 12 8 14 41 11 185 l-3 175 -2 -177 c-1 -115 -6 -178 -12 -178 -7 0 -10
66 -8 200 2 110 3 200 2 200 0 0 -4 -3 -7 -7z"/>
<path d="M13124 2760 c0 -13 4 -16 10 -10 7 7 7 13 0 20 -6 6 -10 3 -10 -10z"/>
<path d="M13490 2755 c0 -8 5 -15 10 -15 6 0 10 7 10 15 0 8 -4 15 -10 15 -5
0 -10 -7 -10 -15z"/>
<path d="M13670 2760 c-8 -5 -17 -7 -21 -4 -4 2 -8 -99 -9 -226 l-1 -230 40 0
c22 0 41 5 44 13 3 9 -6 11 -34 9 l-39 -4 2 213 3 214 30 5 c21 4 25 7 14 12
-9 3 -22 2 -29 -2z"/>
<path d="M14377 2730 c-19 -22 -21 -30 -9 -30 5 0 14 11 20 25 14 30 12 31
-11 5z"/>
<path d="M13213 2689 c-35 -27 -63 -55 -63 -62 0 -8 3 -8 9 2 6 9 11 10 15 2
4 -6 23 -11 42 -11 l35 0 -3 -152 c-2 -95 -7 -153 -13 -152 -5 1 -28 4 -50 7
-22 3 -32 3 -22 1 9 -3 17 -10 17 -15 0 -14 56 -11 68 4 5 6 12 26 14 42 1 17
10 33 18 37 12 5 12 7 -2 7 -16 1 -18 13 -18 111 0 109 0 111 -25 120 -14 5
-32 7 -40 4 -9 -4 -15 0 -15 9 0 13 6 14 30 7 28 -8 47 0 33 14 -9 9 -13 36
-5 36 11 1 58 40 47 39 -5 0 -38 -22 -72 -50z m14 -6 c-4 -3 -1 -13 5 -22 10
-13 10 -14 -1 -4 -7 6 -21 9 -30 6 -11 -4 -10 -1 4 10 20 16 34 23 22 10z"/>
<path d="M13392 2686 c26 -26 51 -45 57 -42 5 4 12 2 15 -3 4 -5 2 -12 -3 -16
-6 -3 -7 -13 -4 -22 5 -12 3 -14 -7 -8 -9 5 -11 4 -6 -4 10 -15 29 -3 22 15
-3 8 -1 14 4 14 6 0 10 -5 10 -11 0 -5 4 -8 9 -4 5 3 12 1 16 -5 4 -6 11 -7
17 -4 6 4 15 0 20 -7 8 -11 9 -10 4 3 -3 10 -1 20 4 23 6 4 10 15 10 26 0 18
11 24 35 19 6 -1 5 4 -2 11 -10 10 -15 9 -28 -1 -13 -11 -19 -10 -34 4 -17 16
-20 16 -37 -1 -18 -18 -69 -29 -59 -13 3 5 -16 23 -42 41 l-48 33 47 -48z"/>
<path d="M13590 2710 c-6 -11 -8 -20 -6 -20 3 0 10 9 16 20 6 11 8 20 6 20 -3
0 -10 -9 -16 -20z"/>
<path d="M13047 2713 c-7 -12 40 -40 50 -30 3 4 -1 7 -10 7 -9 0 -20 7 -25 16
-5 9 -12 12 -15 7z"/>
<path d="M13515 2710 c3 -5 8 -10 11 -10 2 0 4 5 4 10 0 6 -5 10 -11 10 -5 0
-7 -4 -4 -10z"/>
<path d="M14554 2530 c0 -107 2 -151 3 -97 2 53 2 141 0 195 -1 53 -3 9 -3
-98z"/>
<path d="M13276 2696 c3 -9 2 -16 -4 -16 -12 0 -13 -48 -1 -56 5 -3 6 3 2 12
-5 14 -3 16 13 11 18 -7 18 -6 2 6 -25 19 -13 27 46 29 l51 1 -45 4 c-24 3
-50 9 -58 15 -9 8 -11 7 -6 -6z"/>
<path d="M13612 2675 c0 -16 2 -22 5 -12 2 9 2 23 0 30 -3 6 -5 -1 -5 -18z"/>
<path d="M14412 2676 c-9 -21 -16 -24 -51 -19 -40 5 -41 5 -41 -24 0 -35 16
-53 47 -53 13 0 23 1 23 3 0 1 9 27 20 56 20 56 22 80 2 37z"/>
<path d="M13048 2653 c-5 -59 -4 -72 3 -67 5 3 9 1 9 -5 0 -5 12 -7 28 -5 15
3 33 5 40 6 7 1 10 8 7 17 -3 11 0 10 10 -3 8 -11 15 -31 15 -45 0 -21 -2 -23
-10 -11 -7 11 -10 11 -10 2 0 -7 -6 -10 -12 -7 -7 4 -4 -1 6 -9 22 -17 19 -19
-35 -16 -37 1 -70 -22 -49 -35 6 -4 9 -1 8 7 -2 8 10 14 35 16 l37 3 0 -90 0
-91 -30 0 c-16 0 -30 -4 -30 -10 0 -15 46 -12 58 3 6 7 12 53 14 103 3 83 4
89 23 86 15 -3 17 -1 9 8 -7 6 -8 28 -4 54 4 31 3 43 -5 40 -10 -4 -49 26 -56
44 -2 5 -16 12 -31 16 -22 5 -28 3 -30 -11z"/>
<path d="M13370 2494 l0 -176 -50 4 c-28 1 -50 2 -50 1 0 -9 61 -29 71 -22 7
4 17 5 21 3 4 -3 9 -4 10 -2 1 2 4 84 7 183 5 149 8 176 18 155 7 -15 12 -19
12 -9 1 16 -17 39 -31 39 -4 0 -8 -79 -8 -176z"/>
<path d="M14433 2655 c-10 -10 -9 -14 2 -18 7 -3 15 -16 18 -29 3 -19 5 -17 5
7 2 40 -9 57 -25 40z"/>
<path d="M13573 2630 c1 -11 6 -21 12 -24 16 -6 15 17 -1 32 -10 9 -12 7 -11
-8z"/>
<path d="M13613 2605 c0 -22 2 -30 4 -17 2 12 2 30 0 40 -3 9 -5 -1 -4 -23z"/>
<path d="M13487 2593 c-4 -3 -7 -15 -7 -26 0 -25 13 -14 17 13 3 21 1 24 -10
13z"/>
<path d="M13565 2590 c3 -5 14 -10 23 -10 15 0 15 2 2 10 -20 13 -33 13 -25 0z"/>
<path d="M12970 2581 c0 -5 5 -13 10 -16 6 -3 10 -2 10 4 0 5 -4 13 -10 16 -5
3 -10 2 -10 -4z"/>
<path d="M13130 2565 c-11 -13 -10 -14 4 -9 9 3 16 10 16 15 0 13 -6 11 -20
-6z"/>
<path d="M13521 2569 c14 -9 86 -13 77 -4 -2 3 -24 7 -48 9 -29 3 -39 1 -29
-5z"/>
<path d="M14255 2570 c3 -5 18 -10 33 -9 24 0 25 1 7 9 -28 12 -47 12 -40 0z"/>
<path d="M14321 2484 c-1 -54 1 -96 4 -92 3 3 6 43 7 89 0 82 0 83 14 49 13
-33 14 -33 8 -5 -3 17 -11 36 -18 43 -11 11 -14 -4 -15 -84z"/>
<path d="M13041 2554 c0 -11 3 -14 6 -6 3 7 2 16 -1 19 -3 4 -6 -2 -5 -13z"/>
<path d="M13435 2560 c-19 -8 -19 -9 2 -9 12 -1 25 4 28 9 7 12 -2 12 -30 0z"/>
<path d="M14364 2558 c3 -12 8 -14 49 -17 15 -1 17 -12 17 -76 0 -41 4 -75 9
-75 5 0 7 17 4 39 -3 21 0 47 6 58 8 17 6 26 -10 47 -12 15 -24 25 -27 22 -3
-3 -12 0 -20 7 -13 9 -14 9 -8 0 4 -7 3 -13 -3 -13 -5 0 -12 5 -14 10 -3 6 -4
5 -3 -2z"/>
<path d="M13063 2545 c-3 -9 -3 -19 1 -22 3 -4 6 1 6 10 0 8 6 18 13 20 9 4 9
6 -1 6 -7 1 -15 -6 -19 -14z"/>
<path d="M13398 2452 c4 -145 6 -152 43 -152 18 0 28 4 24 10 -3 6 -17 10 -31
10 l-24 0 0 114 c0 63 -3 117 -8 120 -4 2 -6 -44 -4 -102z"/>
<path d="M13614 2475 c0 -49 1 -71 3 -48 2 23 2 64 0 90 -2 26 -3 8 -3 -42z"/>
<path d="M14114 2475 c0 -49 1 -71 3 -48 2 23 2 64 0 90 -2 26 -3 8 -3 -42z"/>
<path d="M14234 2440 c0 -69 1 -97 3 -62 2 34 2 90 0 125 -2 34 -3 6 -3 -63z"/>
<path d="M13497 2543 c-4 -3 -6 -56 -5 -117 l2 -111 5 115 c7 128 7 122 -2
113z"/>
<path d="M13518 2449 c-2 -56 0 -103 5 -106 4 -2 7 43 7 101 0 58 -2 106 -4
106 -3 0 -6 -45 -8 -101z"/>
<path d="M13090 2529 c0 -5 5 -7 10 -4 6 3 10 8 10 11 0 2 -4 4 -10 4 -5 0
-10 -5 -10 -11z"/>
<path d="M13155 2415 c0 -41 3 -75 8 -75 4 0 7 34 7 75 0 41 -3 75 -7 75 -5 0
-8 -34 -8 -75z"/>
<path d="M14351 2440 c-2 -30 -2 -65 -1 -77 1 -15 -4 -23 -14 -23 -9 0 -16 -4
-16 -10 0 -5 7 -7 15 -4 9 4 15 0 15 -10 0 -12 10 -16 38 -16 28 1 41 7 56 27
11 14 13 23 6 18 -10 -6 -12 -4 -7 8 3 9 2 19 -3 22 -6 4 -10 -7 -10 -24 0
-29 -3 -31 -35 -31 l-34 0 -4 88 c-2 67 -4 74 -6 32z"/>
<path d="M13052 2430 c0 -19 2 -27 5 -17 2 9 2 25 0 35 -3 9 -5 1 -5 -18z"/>
<path d="M13610 2348 c0 -23 3 -29 9 -19 8 12 4 51 -5 51 -2 0 -4 -15 -4 -32z"/>
<path d="M14081 2348 c2 -31 2 -31 6 -5 2 15 9 25 14 21 5 -3 7 -10 4 -15 -4
-5 -2 -9 4 -9 5 0 9 9 8 20 -1 12 -8 20 -19 20 -14 0 -18 -7 -17 -32z"/>
<path d="M14575 2370 c-3 -5 1 -10 9 -10 9 0 16 5 16 10 0 6 -4 10 -9 10 -6 0
-13 -4 -16 -10z"/>
<path d="M14934 2360 c0 -11 4 -20 8 -20 4 0 8 9 8 20 0 11 -4 20 -8 20 -4 0
-8 -9 -8 -20z"/>
<path d="M15150 2356 c0 -14 4 -27 9 -30 4 -3 6 6 3 19 -5 28 14 35 21 8 4
-14 5 -12 6 5 1 16 -5 22 -19 22 -15 0 -20 -7 -20 -24z"/>
<path d="M15024 2341 c0 -11 4 -17 8 -15 4 3 8 12 8 20 0 8 -4 14 -8 14 -4 0
-8 -9 -8 -19z"/>
<path d="M14578 2343 c7 -3 16 -2 19 1 4 3 -2 6 -13 5 -11 0 -14 -3 -6 -6z"/>
<path d="M13540 2310 c0 -5 11 -10 24 -10 14 0 28 5 31 10 4 6 -7 10 -24 10
-17 0 -31 -4 -31 -10z"/>
<path d="M14005 2310 c-4 -6 7 -10 24 -10 17 0 31 5 31 10 0 6 -11 10 -24 10
-14 0 -28 -4 -31 -10z"/>
<path d="M14136 2305 c8 -19 15 -19 40 0 18 14 17 14 -13 15 -25 0 -31 -4 -27
-15z"/>
<path d="M14254 2312 c6 -10 42 -9 52 1 4 4 -7 7 -25 7 -18 0 -30 -4 -27 -8z"/>
<path d="M14620 2310 c0 -5 12 -10 26 -10 14 0 23 4 19 10 -3 6 -15 10 -26 10
-10 0 -19 -4 -19 -10z"/>
<path d="M14970 2310 c20 -13 40 -13 40 0 0 6 -12 10 -27 10 -22 0 -25 -2 -13
-10z"/>
<path d="M15080 2309 c0 -6 9 -9 20 -6 11 3 20 1 20 -5 0 -5 5 -6 10 -3 20 12
9 25 -20 25 -16 0 -30 -5 -30 -11z"/>
<path d="M13265 2291 c-3 -5 -1 -12 5 -16 5 -3 10 1 10 9 0 18 -6 21 -15 7z"/>
<path d="M14931 2286 c-7 -8 -8 -17 -3 -20 6 -3 12 3 15 14 6 24 4 25 -12 6z"/>
<path d="M13040 2280 c0 -5 9 -9 20 -7 31 5 36 17 7 17 -15 0 -27 -4 -27 -10z"/>
<path d="M15035 2280 c-16 -7 -17 -9 -3 -9 9 -1 20 4 23 9 7 11 7 11 -20 0z"/>
<path d="M14155 2270 c4 -6 11 -8 16 -5 14 9 11 15 -7 15 -8 0 -12 -5 -9 -10z"/>
<path d="M14270 2266 c0 -9 5 -16 10 -16 6 0 10 4 10 9 0 6 -4 13 -10 16 -5 3
-10 -1 -10 -9z"/>
<path d="M14490 2270 c-9 -6 -10 -10 -3 -10 6 0 15 5 18 10 8 12 4 12 -15 0z"/>
<path d="M14960 2269 c0 -5 5 -7 10 -4 6 3 10 8 10 11 0 2 -4 4 -10 4 -5 0
-10 -5 -10 -11z"/>
<path d="M15265 2270 c3 -5 11 -10 16 -10 6 0 7 5 4 10 -3 6 -11 10 -16 10 -6
0 -7 -4 -4 -10z"/>
<path d="M13188 2263 c6 -2 18 -2 25 0 6 3 1 5 -13 5 -14 0 -19 -2 -12 -5z"/>
<path d="M13720 2256 c0 -9 5 -16 10 -16 6 0 10 4 10 9 0 6 -4 13 -10 16 -5 3
-10 -1 -10 -9z"/>
<path d="M14505 2250 c-3 -5 -1 -10 4 -10 6 0 11 5 11 10 0 6 -2 10 -4 10 -3
0 -8 -4 -11 -10z"/>
<path d="M10685 3911 c-143 -65 -174 -258 -58 -366 101 -93 280 -62 342 60 79
152 -24 326 -193 325 -28 0 -69 -9 -91 -19z"/>
<path d="M4912 2846 c-161 -52 -213 -253 -95 -368 95 -92 220 -91 314 3 39 38
49 56 59 103 21 103 -25 203 -113 244 -58 28 -114 34 -165 18z"/>
<path d="M1835 2603 c-58 -13 -165 -74 -165 -95 0 -5 5 -6 12 -2 7 4 8 3 4 -5
-4 -6 -11 -9 -16 -6 -12 8 -53 -53 -44 -66 4 -8 3 -9 -4 -5 -12 7 -27 -72 -25
-129 1 -46 23 -116 33 -110 6 3 7 0 5 -8 -3 -7 8 -44 25 -82 24 -54 33 -66 41
-55 8 12 9 10 4 -7 -4 -14 3 -36 20 -62 14 -22 25 -43 25 -46 0 -18 104 -174
113 -168 5 3 7 1 3 -5 -3 -6 3 -27 15 -47 25 -42 28 -40 76 38 97 159 144 247
137 258 -4 7 -3 9 3 6 13 -8 26 20 16 35 -3 6 -1 8 4 5 11 -7 36 40 74 135 39
99 35 199 -9 268 -9 14 -17 30 -17 35 -1 6 -6 9 -13 8 -7 -2 -11 2 -9 8 4 19
-80 77 -135 94 -49 14 -128 18 -173 8z m275 -73 c0 -5 -5 -10 -11 -10 -5 0 -7
5 -4 10 3 6 8 10 11 10 2 0 4 -4 4 -10z m-150 -37 c13 3 18 1 13 -6 -4 -7 0
-8 11 -4 9 4 15 3 12 -2 -3 -4 5 -14 18 -20 12 -7 30 -26 40 -42 10 -16 20
-27 24 -25 12 7 13 -106 1 -143 -12 -38 -67 -96 -100 -106 -11 -4 -17 -10 -15
-13 4 -7 -19 -7 -91 -1 -18 2 -33 7 -33 12 0 5 -9 7 -21 4 -12 -3 -18 -3 -15
1 4 3 -9 22 -28 41 -44 45 -60 107 -44 171 6 25 17 50 24 55 8 6 12 19 10 30
-4 25 2 37 15 29 6 -3 5 -12 -3 -22 -12 -14 -10 -14 10 -3 12 7 20 17 16 23
-4 6 -3 8 3 5 5 -3 32 2 59 12 34 13 53 16 61 9 7 -6 22 -8 33 -5z m155 -4
c-4 -5 -12 -9 -18 -8 -9 0 -8 2 1 6 6 2 9 10 6 15 -4 7 -2 8 5 4 6 -4 9 -12 6
-17z m-54 -52 c-10 -9 -11 -8 -5 6 3 10 9 15 12 12 3 -3 0 -11 -7 -18z m46
-119 c-3 -8 -6 -5 -6 6 -1 11 2 17 5 13 3 -3 4 -12 1 -19z m-247 -208 c-8 -5
-19 -10 -25 -10 -5 0 -3 5 5 10 8 5 20 10 25 10 6 0 3 -5 -5 -10z m-60 -210
c-6 -11 -13 -20 -16 -20 -2 0 0 9 6 20 6 11 13 20 16 20 2 0 0 -9 -6 -20z
m144 -146 c3 -8 2 -12 -4 -9 -6 3 -10 10 -10 16 0 14 7 11 14 -7z"/>
<path d="M2936 2315 c-21 -7 -54 -28 -73 -47 -148 -140 -54 -382 147 -381 138
0 230 104 217 245 -7 81 -43 133 -116 171 -61 30 -114 34 -175 12z"/>
<path d="M6802 1966 c-76 -27 -135 -116 -135 -201 1 -136 109 -236 244 -223
173 17 259 227 148 361 -57 69 -167 96 -257 63z"/>
<path d="M8945 1971 c-3 -6 -1 -63 5 -128 6 -65 12 -143 15 -173 45 -525 89
-986 96 -988 4 -2 5 -10 2 -18 -3 -8 1 -14 8 -14 78 -2 1663 1 1665 3 1 1 23
146 48 322 42 293 81 550 104 697 5 32 7 60 4 63 -3 3 -380 5 -838 5 l-833 0
-6 -33 c-7 -42 -74 -498 -82 -559 -3 -27 -10 -48 -14 -48 -5 0 -9 4 -9 9 0 14
-79 670 -86 714 l-6 37 562 0 562 0 -7 53 c-4 28 -9 55 -12 60 -6 11 -1171 9
-1178 -2z m323 -286 c-3 -3 -9 2 -12 12 -6 14 -5 15 5 6 7 -7 10 -15 7 -18z
m-41 -47 c-3 -7 -5 -2 -5 12 0 14 2 19 5 13 2 -7 2 -19 0 -25z m-10 -60 c-3
-8 -6 -5 -6 6 -1 11 2 17 5 13 3 -3 4 -12 1 -19z m1640 -30 c-3 -8 -6 -5 -6 6
-1 11 2 17 5 13 3 -3 4 -12 1 -19z"/>
<path d="M3876 1605 c-81 -29 -138 -112 -138 -204 -1 -70 20 -121 69 -166 49
-45 90 -58 169 -53 83 5 136 41 177 118 25 48 28 63 24 113 -13 151 -157 243
-301 192z"/>
<path d="M1955 1351 c-102 -25 -175 -115 -175 -217 0 -58 30 -122 76 -163 131
-115 328 -49 364 122 23 113 -51 233 -159 256 -57 12 -63 12 -106 2z"/>
</g>
</svg>
